Upgrade_CJK_Try-Thin.ufo
<glyph name="slash" format="2">
  <advance height="1000" width="371"/>
  <unicode hex="002F"/>
  <outline>
    <contour>
      <point x="16" y="0" type="line"/>
      <point x="32" y="0" type="line"/>
      <point x="355" y="740" type="line"/>
      <point x="339" y="740" type="line"/>
    </contour>
  </outline>
</glyph>
<glyph name="colon" format="2">
  <advance height="1000" width="151"/>
  <unicode hex="003A"/>
  <outline>
    <contour>
      <point x="60" y="316" type="line"/>
      <point x="91" y="316" type="line"/>
      <point x="91" y="347" type="line"/>
      <point x="60" y="347" type="line"/>
    </contour>
    <contour>
      <point x="60" y="0" type="line"/>
      <point x="91" y="0" type="line"/>
      <point x="91" y="31" type="line"/>
      <point x="60" y="31" type="line"/>
    </contour>
  </outline>
</glyph>
<glyph name="D" format="2">
  <advance height="1000" width="744"/>
  <unicode hex="0044"/>
  <outline>
    <contour>
      <point x="88.0" y="0.0" type="line"/>
      <point x="275.0" y="0.0" type="line" smooth="yes"/>
      <point x="521.0" y="0.0"/>
      <point x="684.0" y="152.0"/>
      <point x="684.0" y="379.0" type="curve" smooth="yes"/>
      <point x="684.0" y="594.0"/>
      <point x="525.0" y="740.0"/>
      <point x="284.0" y="740.0" type="curve" smooth="yes"/>
      <point x="88.0" y="740.0" type="line"/>
    </contour>
    <contour>
      <point x="104.0" y="15.0" type="line"/>
      <point x="104.0" y="725.0" type="line"/>
      <point x="283.0" y="725.0" type="line" smooth="yes"/>
      <point x="509.0" y="725.0"/>
      <point x="668.0" y="583.0"/>
      <point x="668.0" y="379.0" type="curve" smooth="yes"/>
      <point x="668.0" y="165.0"/>
      <point x="506.0" y="15.0"/>
      <point x="274.0" y="15.0" type="curve" smooth="yes"/>
    </contour>
  </outline>
</glyph>
<glyph name="F" format="2">
  <advance height="1000" width="468"/>
  <unicode hex="0046"/>
  <outline>
    <contour>
      <point x="88.0" y="0.0" type="line"/>
      <point x="104.0" y="0.0" type="line"/>
      <point x="104.0" y="368.0" type="line"/>
      <point x="399.0" y="368.0" type="line"/>
      <point x="399.0" y="383.0" type="line"/>
      <point x="104.0" y="383.0" type="line"/>
      <point x="104.0" y="725.0" type="line"/>
      <point x="436.0" y="725.0" type="line"/>
      <point x="436.0" y="740.0" type="line"/>
      <point x="88.0" y="740.0" type="line"/>
    </contour>
  </outline>
</glyph>
<glyph name="G" format="2">
  <advance height="1000" width="753"/>
  <unicode hex="0047"/>
  <outline>
    <contour>
      <point x="428" y="-8" type="curve" smooth="yes"/>
      <point x="518" y="-8"/>
      <point x="603" y="7"/>
      <point x="685" y="41" type="curve"/>
      <point x="685" y="343" type="line"/>
      <point x="494" y="343" type="line"/>
      <point x="494" y="328" type="line"/>
      <point x="669" y="328" type="line"/>
      <point x="669" y="52" type="line"/>
      <point x="598" y="23"/>
      <point x="516" y="7"/>
      <point x="428" y="7" type="curve" smooth="yes"/>
      <point x="219" y="7"/>
      <point x="76" y="154"/>
      <point x="76" y="372" type="curve" smooth="yes"/>
      <point x="76" y="589"/>
      <point x="221" y="735"/>
      <point x="432" y="735" type="curve" smooth="yes"/>
      <point x="510" y="735"/>
      <point x="585" y="718"/>
      <point x="656" y="687" type="curve"/>
      <point x="656" y="703" type="line"/>
      <point x="584" y="734"/>
      <point x="507" y="750"/>
      <point x="432" y="750" type="curve" smooth="yes"/>
      <point x="214" y="750"/>
      <point x="60" y="599"/>
      <point x="60" y="372" type="curve" smooth="yes"/>
      <point x="60" y="144"/>
      <point x="211" y="-8"/>
    </contour>
  </outline>
</glyph>
<glyph name="L" format="2">
  <advance height="1000" width="482"/>
  <unicode hex="004C"/>
  <outline>
    <contour>
      <point x="88.0" y="0.0" type="line"/>
      <point x="458.0" y="0.0" type="line"/>
      <point x="458.0" y="15.0" type="line"/>
      <point x="104.0" y="15.0" type="line"/>
      <point x="104.0" y="740.0" type="line"/>
      <point x="88.0" y="740.0" type="line"/>
    </contour>
  </outline>
</glyph>
<glyph name="Q" format="2">
  <advance height="1000" width="849"/>
  <unicode hex="0051"/>
  <outline>
    <contour>
      <point x="694" y="-120" type="curve"/>
      <point x="698" y="-104" type="line"/>
      <point x="600" y="-78"/>
      <point x="523" y="-42"/>
      <point x="463" y="7" type="curve"/>
      <point x="448" y="-2" type="line"/>
      <point x="513" y="-55"/>
      <point x="594" y="-94"/>
    </contour>
    <contour>
      <point x="424" y="-8" type="curve" smooth="yes"/>
      <point x="643" y="-8"/>
      <point x="789" y="144"/>
      <point x="789" y="371" type="curve" smooth="yes"/>
      <point x="789" y="598"/>
      <point x="643" y="749"/>
      <point x="424" y="749" type="curve" smooth="yes"/>
      <point x="206" y="749"/>
      <point x="60" y="599"/>
      <point x="60" y="371" type="curve" smooth="yes"/>
      <point x="60" y="144"/>
      <point x="206" y="-8"/>
    </contour>
    <contour>
      <point x="424" y="8" type="curve" smooth="yes"/>
      <point x="216" y="8"/>
      <point x="77" y="153"/>
      <point x="77" y="371" type="curve" smooth="yes"/>
      <point x="77" y="590"/>
      <point x="216" y="733"/>
      <point x="424" y="733" type="curve" smooth="yes"/>
      <point x="633" y="733"/>
      <point x="772" y="588"/>
      <point x="772" y="371" type="curve" smooth="yes"/>
      <point x="772" y="153"/>
      <point x="633" y="8"/>
    </contour>
  </outline>
</glyph>
<glyph name="R" format="2">
  <advance height="1000" width="546"/>
  <unicode hex="0052"/>
  <outline>
    <contour>
      <point x="88.0" y="0.0" type="line"/>
      <point x="104.0" y="0.0" type="line"/>
      <point x="104.0" y="370.0" type="line"/>
      <point x="227.0" y="370.0" type="line" smooth="yes"/>
      <point x="305.0" y="370.0"/>
      <point x="360.0" y="332.0"/>
      <point x="388.0" y="260.0" type="curve"/>
      <point x="488.0" y="0.0" type="line"/>
      <point x="506.0" y="0.0" type="line"/>
      <point x="404.0" y="264.0" type="line" smooth="yes"/>
      <point x="379.0" y="324.0"/>
      <point x="340.0" y="362.0"/>
      <point x="289.0" y="376.0" type="curve"/>
      <point x="375.0" y="393.0"/>
      <point x="442.0" y="460.0"/>
      <point x="442.0" y="552.0" type="curve" smooth="yes"/>
      <point x="442.0" y="664.0"/>
      <point x="361.0" y="740.0"/>
      <point x="225.0" y="740.0" type="curve" smooth="yes"/>
      <point x="88.0" y="740.0" type="line"/>
    </contour>
    <contour>
      <point x="104.0" y="385.0" type="line"/>
      <point x="104.0" y="725.0" type="line"/>
      <point x="225.0" y="725.0" type="line" smooth="yes"/>
      <point x="350.0" y="725.0"/>
      <point x="426.0" y="655.0"/>
      <point x="426.0" y="552.0" type="curve" smooth="yes"/>
      <point x="426.0" y="461.0"/>
      <point x="351.0" y="385.0"/>
      <point x="241.0" y="385.0" type="curve" smooth="yes"/>
    </contour>
  </outline>
</glyph>
<glyph name="T" format="2">
  <advance height="1000" width="600"/>
  <unicode hex="0054"/>
  <outline>
    <contour>
      <point x="292" y="0" type="line"/>
      <point x="308" y="0" type="line"/>
      <point x="308" y="725" type="line"/>
      <point x="580" y="725" type="line"/>
      <point x="580" y="740" type="line"/>
      <point x="20" y="740" type="line"/>
      <point x="20" y="725" type="line"/>
      <point x="292" y="725" type="line"/>
    </contour>
  </outline>
</glyph>
<glyph name="Y" format="2">
  <advance height="1000" width="589"/>
  <unicode hex="0059"/>
  <outline>
    <contour>
      <point x="286" y="0" type="line"/>
      <point x="302" y="0" type="line"/>
      <point x="302" y="346" type="line"/>
      <point x="569" y="740" type="line"/>
      <point x="549" y="740" type="line"/>
      <point x="295" y="363" type="line"/>
      <point x="40" y="740" type="line"/>
      <point x="20" y="740" type="line"/>
      <point x="286" y="348" type="line"/>
    </contour>
  </outline>
</glyph>
<glyph name="Z" format="2">
  <advance height="1000" width="654"/>
  <unicode hex="005A"/>
  <outline>
    <contour>
      <point x="72" y="0" type="line"/>
      <point x="582" y="0" type="line"/>
      <point x="582" y="15" type="line"/>
      <point x="93" y="15" type="line"/>
      <point x="582" y="727" type="line"/>
      <point x="582" y="740" type="line"/>
      <point x="72" y="740" type="line"/>
      <point x="72" y="725" type="line"/>
      <point x="560" y="725" type="line"/>
      <point x="72" y="13" type="line"/>
    </contour>
  </outline>
</glyph>
<glyph name="bracketright" format="2">
  <advance height="1000" width="289"/>
  <unicode hex="005D"/>
  <outline>
    <contour>
      <point x="48" y="-197" type="line"/>
      <point x="201" y="-197" type="line"/>
      <point x="201" y="740" type="line"/>
      <point x="48" y="740" type="line"/>
      <point x="48" y="725" type="line"/>
      <point x="185" y="725" type="line"/>
      <point x="185" y="-182" type="line"/>
      <point x="48" y="-182" type="line"/>
    </contour>
  </outline>
</glyph>
<glyph name="f" format="2">
  <advance height="1000" width="262"/>
  <unicode hex="0066"/>
  <outline>
    <contour>
      <point x="110.0" y="0.0" type="line"/>
      <point x="126.0" y="0.0" type="line"/>
      <point x="126.0" y="510.0" type="line"/>
      <point x="243.0" y="510.0" type="line"/>
      <point x="243.0" y="525.0" type="line"/>
      <point x="126.0" y="525.0" type="line"/>
      <point x="126.0" y="590.0" type="line" smooth="yes"/>
      <point x="126.0" y="683.0"/>
      <point x="176.0" y="733.0"/>
      <point x="251.0" y="733.0" type="curve" smooth="yes"/>
      <point x="281.0" y="733.0"/>
      <point x="310.0" y="727.0"/>
      <point x="342.0" y="711.0" type="curve"/>
      <point x="342.0" y="727.0" type="line"/>
      <point x="313.0" y="741.0"/>
      <point x="283.0" y="748.0"/>
      <point x="251.0" y="748.0" type="curve" smooth="yes"/>
      <point x="166.0" y="748.0"/>
      <point x="110.0" y="693.0"/>
      <point x="110.0" y="590.0" type="curve" smooth="yes"/>
      <point x="110.0" y="525.0" type="line"/>
      <point x="28.0" y="525.0" type="line"/>
      <point x="28.0" y="510.0" type="line"/>
      <point x="110.0" y="510.0" type="line"/>
    </contour>
  </outline>
</glyph>
<glyph name="g" format="2">
  <advance height="1000" width="545"/>
  <unicode hex="0067"/>
  <outline>
    <contour>
      <point x="245.0" y="-205.0" type="curve" smooth="yes"/>
      <point x="382.0" y="-205.0"/>
      <point x="469.0" y="-112.0"/>
      <point x="469.0" y="34.0" type="curve" smooth="yes"/>
      <point x="469.0" y="525.0" type="line"/>
      <point x="456.0" y="525.0" type="line"/>
      <point x="453.0" y="473.0" type="line"/>
      <point x="408.0" y="509.0"/>
      <point x="350.0" y="533.0"/>
      <point x="287.0" y="533.0" type="curve" smooth="yes"/>
      <point x="148.0" y="533.0"/>
      <point x="48.0" y="426.0"/>
      <point x="48.0" y="264.0" type="curve" smooth="yes"/>
      <point x="48.0" y="101.0"/>
      <point x="142.0" y="-7.0"/>
      <point x="281.0" y="-7.0" type="curve" smooth="yes"/>
      <point x="351.0" y="-7.0"/>
      <point x="412.0" y="23.0"/>
      <point x="453.0" y="70.0" type="curve"/>
      <point x="453.0" y="34.0" type="line" smooth="yes"/>
      <point x="453.0" y="-101.0"/>
      <point x="373.0" y="-190.0"/>
      <point x="245.0" y="-190.0" type="curve" smooth="yes"/>
      <point x="189.0" y="-190.0"/>
      <point x="120.0" y="-165.0"/>
      <point x="65.0" y="-124.0" type="curve"/>
      <point x="65.0" y="-143.0" type="line"/>
      <point x="116.0" y="-179.0"/>
      <point x="186.0" y="-205.0"/>
    </contour>
    <contour>
      <point x="281.0" y="8.0" type="curve" smooth="yes"/>
      <point x="152.0" y="8.0"/>
      <point x="65.0" y="112.0"/>
      <point x="65.0" y="265.0" type="curve" smooth="yes"/>
      <point x="65.0" y="417.0"/>
      <point x="158.0" y="518.0"/>
      <point x="287.0" y="518.0" type="curve" smooth="yes"/>
      <point x="347.0" y="518.0"/>
      <point x="405.0" y="494.0"/>
      <point x="453.0" y="452.0" type="curve"/>
      <point x="453.0" y="92.0" type="line"/>
      <point x="409.0" y="38.0"/>
      <point x="345.0" y="8.0"/>
    </contour>
  </outline>
</glyph>
<glyph name="j" format="2">
  <advance height="1000" width="194"/>
  <unicode hex="006A"/>
  <outline>
    <contour>
      <point x="96" y="718" type="line"/>
      <point x="118" y="718" type="line"/>
      <point x="118" y="740" type="line"/>
      <point x="96" y="740" type="line"/>
    </contour>
    <contour>
      <point x="-24" y="-197" type="line"/>
      <point x="59" y="-197"/>
      <point x="116" y="-135"/>
      <point x="116" y="-43" type="curve" smooth="yes"/>
      <point x="116" y="525" type="line"/>
      <point x="100" y="525" type="line"/>
      <point x="100" y="-43" type="line" smooth="yes"/>
      <point x="100" y="-126"/>
      <point x="49" y="-181"/>
      <point x="-24" y="-181" type="curve" smooth="yes"/>
      <point x="-36" y="-181" type="line"/>
      <point x="-36" y="-197" type="line"/>
    </contour>
  </outline>
</glyph>
<glyph name="n" format="2">
  <advance height="1000" width="503"/>
  <unicode hex="006E"/>
  <outline>
    <contour>
      <point x="76" y="0" type="line"/>
      <point x="92" y="0" type="line"/>
      <point x="92" y="417" type="line"/>
      <point x="121" y="478"/>
      <point x="185" y="518"/>
      <point x="254" y="518" type="curve" smooth="yes"/>
      <point x="347" y="518"/>
      <point x="415" y="450"/>
      <point x="415" y="348" type="curve" smooth="yes"/>
      <point x="415" y="0" type="line"/>
      <point x="431" y="0" type="line"/>
      <point x="431" y="348" type="line" smooth="yes"/>
      <point x="431" y="459"/>
      <point x="358" y="533"/>
      <point x="254" y="533" type="curve" smooth="yes"/>
      <point x="187" y="533"/>
      <point x="125" y="499"/>
      <point x="92" y="447" type="curve"/>
      <point x="92" y="525" type="line"/>
      <point x="76" y="525" type="line"/>
    </contour>
  </outline>
</glyph>
<glyph name="s" format="2">
  <advance height="1000" width="405"/>
  <unicode hex="0073"/>
  <outline>
    <contour>
      <point x="198.0" y="-8.0" type="curve" smooth="yes"/>
      <point x="292.0" y="-8.0"/>
      <point x="357.0" y="50.0"/>
      <point x="357.0" y="124.0" type="curve" smooth="yes"/>
      <point x="357.0" y="198.0"/>
      <point x="319.0" y="240.0"/>
      <point x="217.0" y="276.0" type="curve" smooth="yes"/>
      <point x="197.0" y="283.0" type="line" smooth="yes"/>
      <point x="111.0" y="313.0"/>
      <point x="76.0" y="345.0"/>
      <point x="76.0" y="406.0" type="curve" smooth="yes"/>
      <point x="76.0" y="467.0"/>
      <point x="132.0" y="518.0"/>
      <point x="214.0" y="518.0" type="curve" smooth="yes"/>
      <point x="257.0" y="518.0"/>
      <point x="308.0" y="498.0"/>
      <point x="353.0" y="476.0" type="curve"/>
      <point x="353.0" y="494.0" type="line"/>
      <point x="312.0" y="515.0"/>
      <point x="259.0" y="533.0"/>
      <point x="214.0" y="533.0" type="curve" smooth="yes"/>
      <point x="120.0" y="533.0"/>
      <point x="60.0" y="476.0"/>
      <point x="60.0" y="406.0" type="curve" smooth="yes"/>
      <point x="60.0" y="338.0"/>
      <point x="97.0" y="299.0"/>
      <point x="193.0" y="267.0" type="curve" smooth="yes"/>
      <point x="213.0" y="260.0" type="line" smooth="yes"/>
      <point x="305.0" y="230.0"/>
      <point x="341.0" y="190.0"/>
      <point x="341.0" y="124.0" type="curve" smooth="yes"/>
      <point x="341.0" y="59.0"/>
      <point x="281.0" y="7.0"/>
      <point x="198.0" y="7.0" type="curve" smooth="yes"/>
      <point x="152.0" y="7.0"/>
      <point x="96.0" y="26.0"/>
      <point x="48.0" y="65.0" type="curve"/>
      <point x="48.0" y="46.0" type="line"/>
      <point x="88.0" y="13.0"/>
      <point x="143.0" y="-8.0"/>
    </contour>
  </outline>
</glyph>
<glyph name="t" format="2">
  <advance height="1000" width="325"/>
  <unicode hex="0074"/>
  <outline>
    <contour>
      <point x="205" y="-8" type="curve" smooth="yes"/>
      <point x="233" y="-8"/>
      <point x="267" y="2"/>
      <point x="293" y="19" type="curve"/>
      <point x="293" y="37" type="line"/>
      <point x="264" y="17"/>
      <point x="231" y="7"/>
      <point x="205" y="7" type="curve" smooth="yes"/>
      <point x="158" y="7"/>
      <point x="134" y="41"/>
      <point x="134" y="89" type="curve" smooth="yes"/>
      <point x="134" y="510" type="line"/>
      <point x="284" y="510" type="line"/>
      <point x="284" y="525" type="line"/>
      <point x="134" y="525" type="line"/>
      <point x="134" y="703" type="line"/>
      <point x="117" y="703" type="line"/>
      <point x="117" y="525" type="line"/>
      <point x="28" y="525" type="line"/>
      <point x="28" y="510" type="line"/>
      <point x="117" y="510" type="line"/>
      <point x="117" y="89" type="line" smooth="yes"/>
      <point x="117" y="26"/>
      <point x="153" y="-8"/>
    </contour>
  </outline>
</glyph>
<glyph name="u" format="2">
  <advance height="1000" width="503"/>
  <unicode hex="0075"/>
  <outline>
    <contour>
      <point x="250" y="-8" type="curve" smooth="yes"/>
      <point x="315" y="-8"/>
      <point x="378" y="25"/>
      <point x="411" y="78" type="curve"/>
      <point x="413" y="1" type="line"/>
      <point x="427" y="1" type="line"/>
      <point x="427" y="525" type="line"/>
      <point x="411" y="525" type="line"/>
      <point x="411" y="108" type="line"/>
      <point x="382" y="47"/>
      <point x="320" y="8"/>
      <point x="250" y="8" type="curve" smooth="yes"/>
      <point x="155" y="8"/>
      <point x="88" y="75"/>
      <point x="88" y="176" type="curve" smooth="yes"/>
      <point x="88" y="525" type="line"/>
      <point x="72" y="525" type="line"/>
      <point x="72" y="176" type="line" smooth="yes"/>
      <point x="72" y="65"/>
      <point x="144" y="-8"/>
    </contour>
  </outline>
</glyph>
<glyph name="v" format="2">
  <advance height="1000" width="478"/>
  <unicode hex="0076"/>
  <outline>
    <contour>
      <point x="233.0" y="0.0" type="line"/>
      <point x="246.0" y="0.0" type="line"/>
      <point x="458.0" y="525.0" type="line"/>
      <point x="440.0" y="525.0" type="line"/>
      <point x="239.0" y="26.0" type="line"/>
      <point x="37.0" y="525.0" type="line"/>
      <point x="20.0" y="525.0" type="line"/>
    </contour>
  </outline>
</glyph>
<glyph name="y" format="2">
  <advance height="1000" width="483"/>
  <unicode hex="0079"/>
  <outline>
    <contour>
      <point x="4.0" y="-197.0" type="line" smooth="yes"/>
      <point x="107.0" y="-197.0"/>
      <point x="176.0" y="-172.0"/>
      <point x="249.0" y="5.0" type="curve"/>
      <point x="463.0" y="525.0" type="line"/>
      <point x="446.0" y="525.0" type="line"/>
      <point x="242.0" y="30.0" type="line"/>
      <point x="41.0" y="525.0" type="line"/>
      <point x="21.0" y="525.0" type="line"/>
      <point x="231.0" y="13.0" type="line"/>
      <point x="233.0" y="8.0" type="line"/>
      <point x="163.0" y="-160.0"/>
      <point x="99.0" y="-182.0"/>
      <point x="4.0" y="-182.0" type="curve" smooth="yes"/>
      <point x="-8.0" y="-182.0" type="line"/>
      <point x="-8.0" y="-197.0" type="line"/>
    </contour>
  </outline>
</glyph>
<glyph name="braceleft" format="2">
  <advance height="1000" width="452"/>
  <unicode hex="007B"/>
  <outline>
    <contour>
      <point x="397" y="-181" type="curve" smooth="yes"/>
      <point x="432" y="-181" type="line"/>
      <point x="432" y="-165" type="line"/>
      <point x="397" y="-165" type="line" smooth="yes"/>
      <point x="285" y="-165"/>
      <point x="216" y="-93"/>
      <point x="225" y="16" type="curve" smooth="yes"/>
      <point x="234" y="129" type="line" smooth="yes"/>
      <point x="241" y="217"/>
      <point x="187" y="287"/>
      <point x="98" y="303" type="curve"/>
      <point x="186" y="319"/>
      <point x="241" y="388"/>
      <point x="234" y="476" type="curve" smooth="yes"/>
      <point x="225" y="589" type="line" smooth="yes"/>
      <point x="216" y="699"/>
      <point x="285" y="772"/>
      <point x="396" y="772" type="curve" smooth="yes"/>
      <point x="432" y="772" type="line"/>
      <point x="432" y="787" type="line"/>
      <point x="396" y="787" type="line" smooth="yes"/>
      <point x="273" y="787"/>
      <point x="198" y="708"/>
      <point x="208" y="589" type="curve" smooth="yes"/>
      <point x="217" y="476" type="line" smooth="yes"/>
      <point x="224" y="387"/>
      <point x="161" y="320"/>
      <point x="60" y="309" type="curve"/>
      <point x="60" y="297" type="line"/>
      <point x="161" y="284"/>
      <point x="224" y="217"/>
      <point x="217" y="129" type="curve" smooth="yes"/>
      <point x="208" y="16" type="line" smooth="yes"/>
      <point x="199" y="-102"/>
      <point x="275" y="-181"/>
    </contour>
  </outline>
</glyph>
<glyph name="exclamdown" format="2">
  <advance height="1000" width="176"/>
  <unicode hex="00A1"/>
  <outline>
    <contour>
      <point x="80" y="-189" type="line"/>
      <point x="96" y="-189" type="line"/>
      <point x="96" y="375" type="line"/>
      <point x="80" y="375" type="line"/>
    </contour>
    <contour>
      <point x="72" y="493" type="line"/>
      <point x="104" y="493" type="line"/>
      <point x="104" y="525" type="line"/>
      <point x="72" y="525" type="line"/>
    </contour>
  </outline>
</glyph>
<glyph name="questiondown" format="2">
  <advance height="1000" width="415"/>
  <unicode hex="00BF"/>
  <outline>
    <contour>
      <point x="216" y="-8" type="curve" smooth="yes"/>
      <point x="278" y="-8"/>
      <point x="335" y="10"/>
      <point x="375" y="44" type="curve"/>
      <point x="375" y="63" type="line"/>
      <point x="340" y="29"/>
      <point x="285" y="7"/>
      <point x="216" y="7" type="curve" smooth="yes"/>
      <point x="113" y="7"/>
      <point x="56" y="68"/>
      <point x="56" y="160" type="curve" smooth="yes"/>
      <point x="56" y="211"/>
      <point x="86" y="278"/>
      <point x="143" y="344" type="curve" smooth="yes"/>
      <point x="198" y="406"/>
      <point x="234" y="493"/>
      <point x="234" y="574" type="curve"/>
      <point x="220" y="574" type="line"/>
      <point x="220" y="503"/>
      <point x="190" y="422"/>
      <point x="132" y="356" type="curve" smooth="yes"/>
      <point x="77" y="293"/>
      <point x="40" y="220"/>
      <point x="40" y="160" type="curve" smooth="yes"/>
      <point x="40" y="49"/>
      <point x="113" y="-8"/>
    </contour>
    <contour>
      <point x="211" y="708" type="line"/>
      <point x="243" y="708" type="line"/>
      <point x="243" y="740" type="line"/>
      <point x="211" y="740" type="line"/>
    </contour>
  </outline>
</glyph>
<glyph name="Eacute" format="2">
  <advance height="1000" width="515"/>
  <unicode hex="00C9"/>
  <outline>
    <contour>
      <point x="88.0" y="0.0" type="line"/>
      <point x="455.0" y="0.0" type="line"/>
      <point x="455.0" y="15.0" type="line"/>
      <point x="104.0" y="15.0" type="line"/>
      <point x="104.0" y="366.0" type="line"/>
      <point x="424.0" y="366.0" type="line"/>
      <point x="424.0" y="381.0" type="line"/>
      <point x="104.0" y="381.0" type="line"/>
      <point x="104.0" y="725.0" type="line"/>
      <point x="441.0" y="725.0" type="line"/>
      <point x="441.0" y="740.0" type="line"/>
      <point x="88.0" y="740.0" type="line"/>
    </contour>
    <contour>
      <point x="259" y="787" type="line"/>
      <point x="359" y="913" type="line"/>
      <point x="339" y="913" type="line"/>
      <point x="240" y="787" type="line"/>
    </contour>
  </outline>
</glyph>
<glyph name="Edieresis" format="2">
  <advance height="1000" width="515"/>
  <unicode hex="00CB"/>
  <outline>
    <contour>
      <point x="88.0" y="0.0" type="line"/>
      <point x="455.0" y="0.0" type="line"/>
      <point x="455.0" y="15.0" type="line"/>
      <point x="104.0" y="15.0" type="line"/>
      <point x="104.0" y="366.0" type="line"/>
      <point x="424.0" y="366.0" type="line"/>
      <point x="424.0" y="381.0" type="line"/>
      <point x="104.0" y="381.0" type="line"/>
      <point x="104.0" y="725.0" type="line"/>
      <point x="441.0" y="725.0" type="line"/>
      <point x="441.0" y="740.0" type="line"/>
      <point x="88.0" y="740.0" type="line"/>
    </contour>
    <contour>
      <point x="187" y="787" type="line"/>
      <point x="215" y="787" type="line"/>
      <point x="215" y="815" type="line"/>
      <point x="187" y="815" type="line"/>
    </contour>
    <contour>
      <point x="319" y="787" type="line"/>
      <point x="347" y="787" type="line"/>
      <point x="347" y="815" type="line"/>
      <point x="319" y="815" type="line"/>
    </contour>
  </outline>
</glyph>
<glyph name="Oacute" format="2">
  <advance height="1000" width="849"/>
  <unicode hex="00D3"/>
  <outline>
    <contour>
      <point x="424" y="-8" type="curve" smooth="yes"/>
      <point x="643" y="-8"/>
      <point x="789" y="144"/>
      <point x="789" y="371" type="curve" smooth="yes"/>
      <point x="789" y="598"/>
      <point x="643" y="749"/>
      <point x="424" y="749" type="curve" smooth="yes"/>
      <point x="206" y="749"/>
      <point x="60" y="599"/>
      <point x="60" y="371" type="curve" smooth="yes"/>
      <point x="60" y="144"/>
      <point x="206" y="-8"/>
    </contour>
    <contour>
      <point x="424" y="8" type="curve" smooth="yes"/>
      <point x="216" y="8"/>
      <point x="77" y="153"/>
      <point x="77" y="371" type="curve" smooth="yes"/>
      <point x="77" y="590"/>
      <point x="216" y="733"/>
      <point x="424" y="733" type="curve" smooth="yes"/>
      <point x="633" y="733"/>
      <point x="772" y="588"/>
      <point x="772" y="371" type="curve" smooth="yes"/>
      <point x="772" y="153"/>
      <point x="633" y="8"/>
    </contour>
    <contour>
      <point x="409" y="787" type="line"/>
      <point x="509" y="913" type="line"/>
      <point x="489" y="913" type="line"/>
      <point x="390" y="787" type="line"/>
    </contour>
  </outline>
</glyph>
<glyph name="Iotatonos" format="2">
  <advance height="1000" width="221"/>
  <unicode hex="038A"/>
  <outline>
    <contour>
      <point x="109" y="0" type="line"/>
      <point x="125" y="0" type="line"/>
      <point x="125" y="740" type="line"/>
      <point x="109" y="740" type="line"/>
    </contour>
    <contour>
      <point x="0" y="574" type="line"/>
      <point x="15" y="574" type="line"/>
      <point x="69" y="740" type="line"/>
      <point x="53" y="740" type="line"/>
    </contour>
  </outline>
</glyph>
<glyph name="Upsilontonos" format="2">
  <advance height="1000" width="663"/>
  <unicode hex="038E"/>
  <outline>
    <contour>
      <point x="360" y="0" type="line"/>
      <point x="376" y="0" type="line"/>
      <point x="376" y="346" type="line"/>
      <point x="643" y="740" type="line"/>
      <point x="623" y="740" type="line"/>
      <point x="369" y="363" type="line"/>
      <point x="114" y="740" type="line"/>
      <point x="94" y="740" type="line"/>
      <point x="360" y="348" type="line"/>
    </contour>
    <contour>
      <point x="0" y="574" type="line"/>
      <point x="15" y="574" type="line"/>
      <point x="69" y="740" type="line"/>
      <point x="53" y="740" type="line"/>
    </contour>
  </outline>
</glyph>
<glyph name="Omegatonos" format="2">
  <advance height="1000" width="808"/>
  <unicode hex="038F"/>
  <outline>
    <contour>
      <point x="93" y="0" type="line"/>
      <point x="371" y="0" type="line"/>
      <point x="371" y="108" type="line"/>
      <point x="201" y="141"/>
      <point x="89" y="249"/>
      <point x="89" y="417" type="curve" smooth="yes"/>
      <point x="89.0" y="599.0"/>
      <point x="228" y="734"/>
      <point x="404" y="734" type="curve" smooth="yes"/>
      <point x="580" y="734"/>
      <point x="719" y="599"/>
      <point x="719" y="417" type="curve" smooth="yes"/>
      <point x="719" y="247"/>
      <point x="603" y="141"/>
      <point x="433" y="108" type="curve"/>
      <point x="433" y="0" type="line"/>
      <point x="711" y="0" type="line"/>
      <point x="711" y="17" type="line"/>
      <point x="448" y="17" type="line"/>
      <point x="448" y="96" type="line"/>
      <point x="615.0" y="129.0"/>
      <point x="736" y="246"/>
      <point x="736" y="417" type="curve" smooth="yes"/>
      <point x="736" y="613"/>
      <point x="583" y="749"/>
      <point x="404" y="749" type="curve" smooth="yes"/>
      <point x="225" y="749"/>
      <point x="72" y="613"/>
      <point x="72" y="417" type="curve" smooth="yes"/>
      <point x="72" y="248"/>
      <point x="189.0" y="129.0"/>
      <point x="356" y="96" type="curve"/>
      <point x="356" y="17" type="line"/>
      <point x="93" y="17" type="line"/>
    </contour>
    <contour>
      <point x="54" y="574" type="line"/>
      <point x="69" y="574" type="line"/>
      <point x="123" y="740" type="line"/>
      <point x="107" y="740" type="line"/>
    </contour>
  </outline>
</glyph>
<glyph name="iotadieresistonos" format="2">
  <advance height="1000" width="181"/>
  <unicode hex="0390"/>
  <outline>
    <contour>
      <point x="135" y="-3" type="curve" smooth="yes"/>
      <point x="147" y="-3"/>
      <point x="159" y="0"/>
      <point x="171" y="6" type="curve"/>
      <point x="171" y="22" type="line"/>
      <point x="159" y="15"/>
      <point x="149" y="12"/>
      <point x="136" y="12" type="curve" smooth="yes"/>
      <point x="102" y="12"/>
      <point x="92" y="32"/>
      <point x="92" y="72" type="curve" smooth="yes"/>
      <point x="92" y="525" type="line"/>
      <point x="76" y="525" type="line"/>
      <point x="76" y="71" type="line" smooth="yes"/>
      <point x="76" y="25"/>
      <point x="93" y="-3"/>
    </contour>
    <contour>
      <point x="5" y="582" type="line"/>
      <point x="29" y="582" type="line"/>
      <point x="29" y="606" type="line"/>
      <point x="5" y="606" type="line"/>
    </contour>
    <contour>
      <point x="72" y="582" type="line"/>
      <point x="87" y="582" type="line"/>
      <point x="141" y="741" type="line"/>
      <point x="125" y="741" type="line"/>
    </contour>
    <contour>
      <point x="137" y="582" type="line"/>
      <point x="161" y="582" type="line"/>
      <point x="161" y="606" type="line"/>
      <point x="137" y="606" type="line"/>
    </contour>
  </outline>
</glyph>
<glyph name="Alpha" format="2">
  <advance height="1000" width="641"/>
  <unicode hex="0391"/>
  <outline>
    <contour>
      <point x="600" y="0" type="line"/>
      <point x="617" y="0" type="line"/>
      <point x="324" y="740" type="line"/>
      <point x="317" y="740" type="line"/>
      <point x="24" y="0" type="line"/>
      <point x="40" y="0" type="line"/>
      <point x="320" y="707" type="line"/>
    </contour>
    <contour>
      <point x="148" y="291" type="line"/>
      <point x="492" y="291" type="line"/>
      <point x="492" y="306" type="line"/>
      <point x="148" y="306" type="line"/>
    </contour>
  </outline>
</glyph>
<glyph name="Gamma" format="2">
  <advance height="1000" width="461"/>
  <unicode hex="0393"/>
  <outline>
    <contour>
      <point x="88" y="0" type="line"/>
      <point x="104" y="0" type="line"/>
      <point x="104" y="725" type="line"/>
      <point x="441" y="725" type="line"/>
      <point x="441" y="740" type="line"/>
      <point x="88" y="740" type="line"/>
    </contour>
  </outline>
</glyph>
<glyph name="Nu" format="2">
  <advance height="1000" width="761"/>
  <unicode hex="039D"/>
  <outline>
    <contour>
      <point x="88.0" y="0.0" type="line"/>
      <point x="103.0" y="0.0" type="line"/>
      <point x="103.0" y="714.0" type="line"/>
      <point x="659.0" y="0.0" type="line"/>
      <point x="673.0" y="0.0" type="line"/>
      <point x="673.0" y="740.0" type="line"/>
      <point x="658.0" y="740.0" type="line"/>
      <point x="658.0" y="27.0" type="line"/>
      <point x="103.0" y="740.0" type="line"/>
      <point x="88.0" y="740.0" type="line"/>
    </contour>
  </outline>
</glyph>
<glyph name="Pi" format="2">
  <advance height="1000" width="674"/>
  <unicode hex="03A0"/>
  <outline>
    <contour>
      <point x="88.0" y="0.0" type="line"/>
      <point x="104.0" y="0.0" type="line"/>
      <point x="104.0" y="725.0" type="line"/>
      <point x="570.0" y="725.0" type="line"/>
      <point x="570.0" y="0.0" type="line"/>
      <point x="586.0" y="0.0" type="line"/>
      <point x="586.0" y="740.0" type="line"/>
      <point x="88.0" y="740.0" type="line"/>
    </contour>
  </outline>
</glyph>
<glyph name="Psi" format="2">
  <advance height="1000" width="671"/>
  <unicode hex="03A8"/>
  <outline>
    <contour>
      <point x="335" y="161" type="curve" smooth="yes"/>
      <point x="490" y="161"/>
      <point x="591" y="261"/>
      <point x="591" y="393" type="curve" smooth="yes"/>
      <point x="591" y="740" type="line"/>
      <point x="576" y="740" type="line"/>
      <point x="576" y="393" type="line" smooth="yes"/>
      <point x="576" y="275"/>
      <point x="476" y="176"/>
      <point x="335" y="176" type="curve" smooth="yes"/>
      <point x="190" y="176"/>
      <point x="96" y="276"/>
      <point x="96" y="401" type="curve" smooth="yes"/>
      <point x="96" y="740" type="line"/>
      <point x="80" y="740" type="line"/>
      <point x="80" y="401" type="line" smooth="yes"/>
      <point x="80" y="263"/>
      <point x="174" y="161"/>
    </contour>
    <contour>
      <point x="327" y="0" type="line"/>
      <point x="343" y="0" type="line"/>
      <point x="343" y="724" type="line"/>
      <point x="327" y="724" type="line"/>
    </contour>
  </outline>
</glyph>
<glyph name="Iotadieresis" format="2">
  <advance height="1000" width="254"/>
  <unicode hex="03AA"/>
  <outline>
    <contour>
      <point x="121" y="0" type="line"/>
      <point x="137" y="0" type="line"/>
      <point x="137" y="740" type="line"/>
      <point x="121" y="740" type="line"/>
    </contour>
    <contour>
      <point x="49" y="787" type="line"/>
      <point x="77" y="787" type="line"/>
      <point x="77" y="815" type="line"/>
      <point x="49" y="815" type="line"/>
    </contour>
    <contour>
      <point x="181" y="787" type="line"/>
      <point x="209" y="787" type="line"/>
      <point x="209" y="815" type="line"/>
      <point x="181" y="815" type="line"/>
    </contour>
  </outline>
</glyph>
<glyph name="Upsilondieresis" format="2">
  <advance height="1000" width="589"/>
  <unicode hex="03AB"/>
  <outline>
    <contour>
      <point x="286" y="0" type="line"/>
      <point x="302" y="0" type="line"/>
      <point x="302" y="346" type="line"/>
      <point x="569" y="740" type="line"/>
      <point x="549" y="740" type="line"/>
      <point x="295" y="363" type="line"/>
      <point x="40" y="740" type="line"/>
      <point x="20" y="740" type="line"/>
      <point x="286" y="348" type="line"/>
    </contour>
    <contour>
      <point x="212" y="787" type="line"/>
      <point x="240" y="787" type="line"/>
      <point x="240" y="815" type="line"/>
      <point x="212" y="815" type="line"/>
    </contour>
    <contour>
      <point x="344" y="787" type="line"/>
      <point x="372" y="787" type="line"/>
      <point x="372" y="815" type="line"/>
      <point x="344" y="815" type="line"/>
    </contour>
  </outline>
</glyph>
<glyph name="alphatonos" format="2">
  <advance height="1000" width="560"/>
  <unicode hex="03AC"/>
  <outline>
    <contour>
      <point x="299" y="-8" type="curve" smooth="yes"/>
      <point x="382.0" y="-8.0"/>
      <point x="462.0" y="41.0"/>
      <point x="485" y="118" type="curve"/>
      <point x="485.0" y="71.0" type="line" smooth="yes"/>
      <point x="485.0" y="24.75"/>
      <point x="502.0" y="-3.0"/>
      <point x="544" y="-3" type="curve" smooth="yes"/>
      <point x="556.0" y="-3.0"/>
      <point x="568.0" y="0.0"/>
      <point x="580" y="6" type="curve"/>
      <point x="580" y="22" type="line"/>
      <point x="568.0" y="15.0"/>
      <point x="558.0" y="12.0"/>
      <point x="545" y="12" type="curve" smooth="yes"/>
      <point x="511" y="12"/>
      <point x="501.0" y="32.33898305084746"/>
      <point x="501.0" y="72.0" type="curve" smooth="yes"/>
      <point x="501" y="525" type="line"/>
      <point x="485" y="525" type="line"/>
      <point x="485" y="424" type="line"/>
      <point x="468.0" y="488.0"/>
      <point x="399.0" y="533.0"/>
      <point x="316.0" y="533.0" type="curve" smooth="yes"/>
      <point x="170" y="533"/>
      <point x="72.0" y="420.7757352941177"/>
      <point x="72" y="258" type="curve" smooth="yes"/>
      <point x="72.0" y="98.79553903345723"/>
      <point x="163.0" y="-8.0"/>
    </contour>
    <contour>
      <point x="302" y="7" type="curve" smooth="yes"/>
      <point x="174.0" y="7.0"/>
      <point x="88.0" y="107.79527559055117"/>
      <point x="88" y="258" type="curve" smooth="yes"/>
      <point x="88.0" y="402.66926070038915"/>
      <point x="179" y="518"/>
      <point x="316.0" y="518.0" type="curve" smooth="yes"/>
      <point x="417.0" y="518.0"/>
      <point x="485.0" y="450.0"/>
      <point x="485" y="360" type="curve" smooth="yes"/>
      <point x="485.0" y="180.0" type="line" smooth="yes"/>
      <point x="485" y="82"/>
      <point x="400.45901639344265" y="7.0"/>
    </contour>
    <contour>
      <point x="305" y="582" type="line"/>
      <point x="320" y="582" type="line"/>
      <point x="374" y="748" type="line"/>
      <point x="358" y="748" type="line"/>
    </contour>
  </outline>
</glyph>
<glyph name="etatonos" format="2">
  <advance height="1000" width="513"/>
  <unicode hex="03AE"/>
  <outline>
    <contour>
      <point x="69" y="0" type="line"/>
      <point x="85" y="0" type="line"/>
      <point x="85" y="417" type="line"/>
      <point x="114.0" y="478.0"/>
      <point x="178.0" y="518.0"/>
      <point x="247" y="518" type="curve" smooth="yes"/>
      <point x="340" y="518"/>
      <point x="408.0" y="450.0"/>
      <point x="408.0" y="348.0" type="curve" smooth="yes"/>
      <point x="408" y="-107" type="line" smooth="yes"/>
      <point x="408" y="-153"/>
      <point x="411.0" y="-191.0"/>
      <point x="416" y="-220" type="curve"/>
      <point x="433" y="-220" type="line"/>
      <point x="427.0" y="-191.0"/>
      <point x="424" y="-153"/>
      <point x="424" y="-107" type="curve" smooth="yes"/>
      <point x="424.0" y="348.0" type="line" smooth="yes"/>
      <point x="424.0" y="459.0"/>
      <point x="351" y="533"/>
      <point x="247" y="533" type="curve" smooth="yes"/>
      <point x="180" y="533"/>
      <point x="118.0" y="499.0"/>
      <point x="85" y="447" type="curve"/>
      <point x="85" y="525" type="line"/>
      <point x="69" y="525" type="line"/>
    </contour>
    <contour>
      <point x="231" y="582" type="line"/>
      <point x="246" y="582" type="line"/>
      <point x="300" y="748" type="line"/>
      <point x="284" y="748" type="line"/>
    </contour>
  </outline>
</glyph>
<glyph name="upsilondieresistonos" format="2">
  <advance height="1000" width="468"/>
  <unicode hex="03B0"/>
  <outline>
    <contour>
      <point x="210" y="-7" type="curve" smooth="yes"/>
      <point x="336.0" y="-7.0"/>
      <point x="399.0" y="96.0"/>
      <point x="399.0" y="295.0" type="curve" smooth="yes"/>
      <point x="399.0" y="380.0"/>
      <point x="389" y="459"/>
      <point x="371" y="526" type="curve"/>
      <point x="355" y="526" type="line"/>
      <point x="373" y="461"/>
      <point x="383.0" y="382.0"/>
      <point x="383.0" y="295.0" type="curve" smooth="yes"/>
      <point x="383.0" y="90.0"/>
      <point x="315.0" y="8.0"/>
      <point x="210" y="8" type="curve" smooth="yes"/>
      <point x="107.0" y="8.0"/>
      <point x="37.0" y="91.17535545023696"/>
      <point x="37" y="233" type="curve" smooth="yes"/>
      <point x="37" y="526" type="line"/>
      <point x="21.0" y="526.0" type="line"/>
      <point x="21.0" y="233.0" type="line" smooth="yes"/>
      <point x="21.0" y="95.29508196721312"/>
      <point x="86.0" y="-7.0"/>
    </contour>
    <contour>
      <point x="119" y="582" type="line"/>
      <point x="143" y="582" type="line"/>
      <point x="143" y="606" type="line"/>
      <point x="119" y="606" type="line"/>
    </contour>
    <contour>
      <point x="186" y="582" type="line"/>
      <point x="201" y="582" type="line"/>
      <point x="255" y="741" type="line"/>
      <point x="239" y="741" type="line"/>
    </contour>
    <contour>
      <point x="251" y="582" type="line"/>
      <point x="275" y="582" type="line"/>
      <point x="275" y="606" type="line"/>
      <point x="251" y="606" type="line"/>
    </contour>
  </outline>
</glyph>
<glyph name="alpha" format="2">
  <advance height="1000" width="568"/>
  <unicode hex="03B1"/>
  <outline>
    <contour>
      <point x="275" y="-8" type="curve" smooth="yes"/>
      <point x="358.0" y="-8.0"/>
      <point x="438.0" y="41.0"/>
      <point x="461" y="118" type="curve"/>
      <point x="461.0" y="71" type="line" smooth="yes"/>
      <point x="461.0" y="24.75"/>
      <point x="478" y="-3.0"/>
      <point x="520" y="-3" type="curve" smooth="yes"/>
      <point x="532.0" y="-3.0"/>
      <point x="544.0" y="0.0"/>
      <point x="556" y="6" type="curve"/>
      <point x="556" y="22" type="line"/>
      <point x="544" y="15.0"/>
      <point x="534.0" y="12"/>
      <point x="521" y="12" type="curve" smooth="yes"/>
      <point x="487" y="12"/>
      <point x="477.0" y="32.33898305084746"/>
      <point x="477.0" y="72" type="curve" smooth="yes"/>
      <point x="477" y="525" type="line"/>
      <point x="461" y="525" type="line"/>
      <point x="461" y="424" type="line"/>
      <point x="444.0" y="488"/>
      <point x="375.0" y="533.0"/>
      <point x="292.0" y="533.0" type="curve" smooth="yes"/>
      <point x="146" y="533"/>
      <point x="48.0" y="420.7757352941177"/>
      <point x="48" y="258" type="curve" smooth="yes"/>
      <point x="48.0" y="98.79553903345723"/>
      <point x="139.0" y="-8.0"/>
    </contour>
    <contour>
      <point x="278" y="7" type="curve" smooth="yes"/>
      <point x="150.0" y="7.0"/>
      <point x="64.0" y="107.79527559055117"/>
      <point x="64" y="258" type="curve" smooth="yes"/>
      <point x="64.0" y="402.66926070038915"/>
      <point x="155" y="518"/>
      <point x="292" y="518.0" type="curve" smooth="yes"/>
      <point x="393.0" y="518.0"/>
      <point x="461.0" y="450.0"/>
      <point x="461" y="360" type="curve" smooth="yes"/>
      <point x="461.0" y="180" type="line" smooth="yes"/>
      <point x="461" y="82"/>
      <point x="376.45901639344265" y="7.0"/>
    </contour>
  </outline>
</glyph>
<glyph name="delta" format="2">
  <advance height="1000" width="542"/>
  <unicode hex="03B4"/>
  <outline>
    <contour>
      <point x="271" y="-6" type="curve" smooth="yes"/>
      <point x="391" y="-6"/>
      <point x="494" y="92"/>
      <point x="494" y="238" type="curve" smooth="yes"/>
      <point x="494.0" y="381.0"/>
      <point x="418" y="479"/>
      <point x="280" y="522" type="curve" smooth="yes"/>
      <point x="267" y="526" type="line" smooth="yes"/>
      <point x="139" y="565"/>
      <point x="111" y="594"/>
      <point x="111.0" y="641.0" type="curve" smooth="yes"/>
      <point x="111" y="698"/>
      <point x="171" y="732"/>
      <point x="260" y="732" type="curve" smooth="yes"/>
      <point x="305" y="732"/>
      <point x="365" y="720"/>
      <point x="433" y="692" type="curve"/>
      <point x="433" y="709" type="line"/>
      <point x="368" y="735"/>
      <point x="312" y="747"/>
      <point x="260" y="747" type="curve" smooth="yes"/>
      <point x="161" y="747"/>
      <point x="95" y="706"/>
      <point x="95.0" y="640.0" type="curve" smooth="yes"/>
      <point x="95.0" y="583.0"/>
      <point x="134" y="551"/>
      <point x="262" y="512" type="curve" smooth="yes"/>
      <point x="275" y="508" type="line" smooth="yes"/>
      <point x="409" y="467"/>
      <point x="478" y="374"/>
      <point x="478" y="238" type="curve" smooth="yes"/>
      <point x="478" y="113"/>
      <point x="395" y="9"/>
      <point x="271" y="9" type="curve" smooth="yes"/>
      <point x="147" y="9"/>
      <point x="64" y="113"/>
      <point x="64" y="238" type="curve" smooth="yes"/>
      <point x="64" y="375"/>
      <point x="138" y="466"/>
      <point x="282" y="509" type="curve"/>
      <point x="276" y="522" type="line"/>
      <point x="126" y="477"/>
      <point x="48" y="379"/>
      <point x="48" y="238" type="curve" smooth="yes"/>
      <point x="48" y="92"/>
      <point x="151" y="-6"/>
    </contour>
  </outline>
</glyph>
<glyph name="eta" format="2">
  <advance height="1000" width="518"/>
  <unicode hex="03B7"/>
  <outline>
    <contour>
      <point x="75" y="0" type="line"/>
      <point x="91" y="0" type="line"/>
      <point x="91" y="417" type="line"/>
      <point x="120.0" y="478"/>
      <point x="184.0" y="518.0"/>
      <point x="253" y="518" type="curve" smooth="yes"/>
      <point x="346" y="518"/>
      <point x="414.0" y="450.0"/>
      <point x="414.0" y="348" type="curve" smooth="yes"/>
      <point x="414" y="-107" type="line" smooth="yes"/>
      <point x="414" y="-153"/>
      <point x="417.0" y="-191.0"/>
      <point x="422" y="-220" type="curve"/>
      <point x="439" y="-220" type="line"/>
      <point x="433.0" y="-191.0"/>
      <point x="430" y="-153"/>
      <point x="430" y="-107" type="curve" smooth="yes"/>
      <point x="430.0" y="348" type="line" smooth="yes"/>
      <point x="430.0" y="459.0"/>
      <point x="357" y="533"/>
      <point x="253" y="533" type="curve" smooth="yes"/>
      <point x="186" y="533"/>
      <point x="124.0" y="499"/>
      <point x="91" y="447" type="curve"/>
      <point x="91" y="525" type="line"/>
      <point x="75" y="525" type="line"/>
    </contour>
  </outline>
</glyph>
<glyph name="theta" format="2">
  <advance height="1000" width="543"/>
  <unicode hex="03B8"/>
  <outline>
    <contour>
      <point x="272" y="-10" type="curve" smooth="yes"/>
      <point x="403" y="-10"/>
      <point x="491" y="142"/>
      <point x="491" y="369" type="curve" smooth="yes"/>
      <point x="491" y="597"/>
      <point x="403" y="749"/>
      <point x="272" y="749" type="curve" smooth="yes"/>
      <point x="140" y="749"/>
      <point x="52" y="597"/>
      <point x="52" y="368" type="curve" smooth="yes"/>
      <point x="52" y="141"/>
      <point x="140" y="-10"/>
    </contour>
    <contour>
      <point x="272" y="5" type="curve" smooth="yes"/>
      <point x="150" y="5"/>
      <point x="68" y="151"/>
      <point x="68" y="369" type="curve" smooth="yes"/>
      <point x="68" y="588"/>
      <point x="150" y="734"/>
      <point x="272" y="734" type="curve" smooth="yes"/>
      <point x="394" y="734"/>
      <point x="475" y="588"/>
      <point x="475" y="368" type="curve" smooth="yes"/>
      <point x="475" y="150"/>
      <point x="394" y="5"/>
    </contour>
    <contour>
      <point x="59" y="367" type="line"/>
      <point x="483" y="367" type="line"/>
      <point x="483" y="382" type="line"/>
      <point x="59" y="382" type="line"/>
    </contour>
  </outline>
</glyph>
<glyph name="lambda" format="2">
  <advance height="1000" width="445"/>
  <unicode hex="03BB"/>
  <outline>
    <contour>
      <point x="17" y="0" type="line"/>
      <point x="34" y="0" type="line"/>
      <point x="224" y="459" type="line"/>
      <point x="411" y="0" type="line"/>
      <point x="429" y="0" type="line"/>
      <point x="153" y="672" type="line" smooth="yes"/>
      <point x="129" y="731"/>
      <point x="103" y="748"/>
      <point x="60" y="748.0" type="curve" smooth="yes"/>
      <point x="44" y="748"/>
      <point x="29.0" y="745.0"/>
      <point x="15" y="739" type="curve"/>
      <point x="15" y="724" type="line"/>
      <point x="32.0" y="731"/>
      <point x="48.0" y="733.0"/>
      <point x="57" y="733" type="curve" smooth="yes"/>
      <point x="99" y="733"/>
      <point x="117" y="717"/>
      <point x="139" y="664" type="curve" smooth="yes"/>
      <point x="215" y="479" type="line"/>
    </contour>
  </outline>
</glyph>
<glyph name="nu" format="2">
  <advance height="1000" width="449"/>
  <unicode hex="03BD"/>
  <outline>
    <contour>
      <point x="233.0" y="0.0" type="line"/>
      <point x="246.0" y="0.0" type="line"/>
      <point x="381.0" y="336.0" type="line" smooth="yes"/>
      <point x="407.0" y="401.0"/>
      <point x="426.0" y="463.0"/>
      <point x="429.0" y="525.0" type="curve"/>
      <point x="414.0" y="525.0" type="line"/>
      <point x="411.95652173913044" y="470.0"/>
      <point x="395.60869565217394" y="412.0"/>
      <point x="367.0" y="343.0" type="curve" smooth="yes"/>
      <point x="239.0" y="26.0" type="line"/>
      <point x="37.0" y="525.0" type="line"/>
      <point x="20.0" y="525.0" type="line"/>
    </contour>
  </outline>
</glyph>
<glyph name="xi" format="2">
  <advance height="1000" width="450"/>
  <unicode hex="03BE"/>
  <outline>
    <contour>
      <point x="395" y="-106" type="curve"/>
      <point x="411" y="-106" type="line"/>
      <point x="416" y="-92"/>
      <point x="420" y="-73"/>
      <point x="420" y="-54" type="curve" smooth="yes"/>
      <point x="420" y="-1"/>
      <point x="384" y="26"/>
      <point x="315" y="33" type="curve" smooth="yes"/>
      <point x="289" y="36" type="line" smooth="yes"/>
      <point x="133.0" y="54.366666666666674"/>
      <point x="87.0" y="119.04545454545455"/>
      <point x="87" y="210" type="curve" smooth="yes"/>
      <point x="87.0" y="307.12280701754383"/>
      <point x="176.0" y="383.0"/>
      <point x="299" y="383" type="curve" smooth="yes"/>
      <point x="348" y="383" type="line"/>
      <point x="348" y="398" type="line"/>
      <point x="297" y="398" type="line" smooth="yes"/>
      <point x="178.34806629834253" y="398.0"/>
      <point x="115" y="452"/>
      <point x="115" y="528" type="curve" smooth="yes"/>
      <point x="115.0" y="619.0"/>
      <point x="193" y="696"/>
      <point x="405" y="726" type="curve"/>
      <point x="405" y="740" type="line"/>
      <point x="44" y="740" type="line"/>
      <point x="44" y="724" type="line"/>
      <point x="326" y="724" type="line"/>
      <point x="175.0" y="692"/>
      <point x="99.0" y="619"/>
      <point x="99" y="528" type="curve" smooth="yes"/>
      <point x="99" y="454"/>
      <point x="156.0" y="402"/>
      <point x="239" y="391" type="curve"/>
      <point x="138.0" y="370.77777777777777"/>
      <point x="71.0" y="297.97777777777776"/>
      <point x="71" y="209" type="curve" smooth="yes"/>
      <point x="71.0" y="105.09947643979058"/>
      <point x="126.0" y="38.60621761658031"/>
      <point x="288" y="20" type="curve" smooth="yes"/>
      <point x="315" y="17" type="line" smooth="yes"/>
      <point x="374" y="11"/>
      <point x="404" y="-9"/>
      <point x="404" y="-53" type="curve" smooth="yes"/>
      <point x="404" y="-75"/>
      <point x="400" y="-92"/>
    </contour>
  </outline>
</glyph>
<glyph name="rho" format="2">
  <advance height="1000" width="594"/>
  <unicode hex="03C1"/>
  <outline>
    <contour>
      <point x="69" y="-220" type="curve"/>
      <point x="85" y="-220" type="line"/>
      <point x="79" y="-189"/>
      <point x="76" y="-147"/>
      <point x="76" y="-97" type="curve" smooth="yes"/>
      <point x="76" y="184" type="line"/>
      <point x="72" y="184" type="line"/>
      <point x="100" y="67"/>
      <point x="197" y="-8"/>
      <point x="302" y="-8" type="curve" smooth="yes"/>
      <point x="443" y="-8"/>
      <point x="546" y="94"/>
      <point x="546" y="260" type="curve" smooth="yes"/>
      <point x="546" y="424"/>
      <point x="449" y="532"/>
      <point x="303" y="532" type="curve" smooth="yes"/>
      <point x="156" y="532"/>
      <point x="60" y="423"/>
      <point x="60" y="260" type="curve" smooth="yes"/>
      <point x="60" y="-97" type="line" smooth="yes"/>
      <point x="60" y="-147"/>
      <point x="63" y="-189"/>
    </contour>
    <contour>
      <point x="302" y="6" type="curve" smooth="yes"/>
      <point x="213" y="6"/>
      <point x="76" y="84"/>
      <point x="76" y="258" type="curve" smooth="yes"/>
      <point x="76" y="414"/>
      <point x="167" y="517"/>
      <point x="303" y="517" type="curve" smooth="yes"/>
      <point x="438" y="517"/>
      <point x="530" y="414"/>
      <point x="530" y="260" type="curve" smooth="yes"/>
      <point x="530" y="102"/>
      <point x="434" y="6"/>
    </contour>
  </outline>
</glyph>
<glyph name="sigma1" format="2">
  <advance height="1000" width="477"/>
  <unicode hex="03C2"/>
  <outline>
    <contour>
      <point x="398" y="-106" type="curve"/>
      <point x="415" y="-106" type="line"/>
      <point x="420" y="-91"/>
      <point x="425" y="-71"/>
      <point x="425" y="-43" type="curve" smooth="yes"/>
      <point x="425" y="6"/>
      <point x="388" y="34"/>
      <point x="314" y="42" type="curve" smooth="yes"/>
      <point x="285" y="45" type="line" smooth="yes"/>
      <point x="148" y="59"/>
      <point x="68" y="140"/>
      <point x="68" y="265" type="curve" smooth="yes"/>
      <point x="68" y="427"/>
      <point x="150" y="518"/>
      <point x="283" y="518" type="curve" smooth="yes"/>
      <point x="334" y="518"/>
      <point x="374" y="509"/>
      <point x="421" y="487" type="curve"/>
      <point x="421" y="507" type="line"/>
      <point x="376" y="525"/>
      <point x="332" y="533"/>
      <point x="283" y="533" type="curve" smooth="yes"/>
      <point x="142" y="533"/>
      <point x="52" y="434"/>
      <point x="52" y="265" type="curve" smooth="yes"/>
      <point x="52" y="121"/>
      <point x="144" y="44"/>
      <point x="283" y="29" type="curve" smooth="yes"/>
      <point x="312" y="26" type="line" smooth="yes"/>
      <point x="376" y="19"/>
      <point x="409" y="-5"/>
      <point x="409" y="-43" type="curve" smooth="yes"/>
      <point x="409" y="-74"/>
      <point x="403" y="-91"/>
    </contour>
  </outline>
</glyph>
<glyph name="sigma" format="2">
  <advance height="1000" width="606"/>
  <unicode hex="03C3"/>
  <outline>
    <contour>
      <point x="298.0" y="7.0" type="curve" smooth="yes"/>
      <point x="158.0" y="7.0"/>
      <point x="64.0" y="109.0"/>
      <point x="64.0" y="262.0" type="curve" smooth="yes"/>
      <point x="64.0" y="411.0"/>
      <point x="158.0" y="510.0"/>
      <point x="304.0" y="510.0" type="curve" smooth="yes"/>
      <point x="445.0" y="510.0"/>
      <point x="538.0" y="410.0"/>
      <point x="538.0" y="261.0" type="curve" smooth="yes"/>
      <point x="538.0" y="109.0"/>
      <point x="442.0" y="7.0"/>
    </contour>
    <contour>
      <point x="298.0" y="-8.0" type="curve" smooth="yes"/>
      <point x="451.0" y="-8.0"/>
      <point x="554.0" y="99.0"/>
      <point x="554.0" y="261.0" type="curve" smooth="yes"/>
      <point x="554.0" y="403.0"/>
      <point x="463.0" y="494.0"/>
      <point x="378.0" y="510.0" type="curve"/>
      <point x="574.0" y="510.0" type="line"/>
      <point x="574.0" y="525.0" type="line"/>
      <point x="305.0" y="525.0" type="line" smooth="yes"/>
      <point x="148.0" y="525.0"/>
      <point x="48.0" y="419.0"/>
      <point x="48.0" y="261.0" type="curve" smooth="yes"/>
      <point x="48.0" y="100.0"/>
      <point x="149.0" y="-8.0"/>
    </contour>
  </outline>
</glyph>
<glyph name="upsilon" format="2">
  <advance height="1000" width="511"/>
  <unicode hex="03C5"/>
  <outline>
    <contour>
      <point x="280" y="-8" type="curve" smooth="yes"/>
      <point x="406.0" y="-8.0"/>
      <point x="469.0" y="95"/>
      <point x="469.0" y="294.0" type="curve" smooth="yes"/>
      <point x="469.0" y="379.0"/>
      <point x="459" y="458"/>
      <point x="441" y="525" type="curve"/>
      <point x="425" y="525" type="line"/>
      <point x="443" y="460"/>
      <point x="453.0" y="381.0"/>
      <point x="453.0" y="294.0" type="curve" smooth="yes"/>
      <point x="453.0" y="89.0"/>
      <point x="385.0" y="7.0"/>
      <point x="280" y="7" type="curve" smooth="yes"/>
      <point x="177.0" y="7.0"/>
      <point x="107.0" y="90.17535545023696"/>
      <point x="107" y="232" type="curve" smooth="yes"/>
      <point x="107" y="525" type="line"/>
      <point x="91.0" y="525" type="line"/>
      <point x="91.0" y="232" type="line" smooth="yes"/>
      <point x="91.0" y="94.29508196721312"/>
      <point x="156.0" y="-8.0"/>
    </contour>
  </outline>
</glyph>
<glyph name="phi" format="2">
  <advance height="1000" width="600"/>
  <unicode hex="03C6"/>
  <outline>
    <contour>
      <point x="292.0" y="-220.0" type="line"/>
      <point x="308.0" y="-220.0" type="line"/>
      <point x="308.0" y="740.0" type="line"/>
      <point x="292.0" y="740.0" type="line"/>
    </contour>
    <contour>
      <point x="300.0" y="-8.0" type="curve" smooth="yes"/>
      <point x="451.0" y="-8.0"/>
      <point x="552.0" y="100.0"/>
      <point x="552.0" y="261.0" type="curve" smooth="yes"/>
      <point x="552.0" y="422.0"/>
      <point x="451.0" y="533.0"/>
      <point x="300.0" y="533.0" type="curve" smooth="yes"/>
      <point x="149.0" y="533.0"/>
      <point x="48.0" y="422.0"/>
      <point x="48.0" y="261.0" type="curve" smooth="yes"/>
      <point x="48.0" y="100.0"/>
      <point x="149.0" y="-8.0"/>
    </contour>
    <contour>
      <point x="300.0" y="7.0" type="curve" smooth="yes"/>
      <point x="158.0" y="7.0"/>
      <point x="64.0" y="109.0"/>
      <point x="64.0" y="261.0" type="curve" smooth="yes"/>
      <point x="64.0" y="412.0"/>
      <point x="158.0" y="518.0"/>
      <point x="300.0" y="518.0" type="curve" smooth="yes"/>
      <point x="442.0" y="518.0"/>
      <point x="536.0" y="412.0"/>
      <point x="536.0" y="261.0" type="curve" smooth="yes"/>
      <point x="536.0" y="109.0"/>
      <point x="442.0" y="7.0"/>
    </contour>
  </outline>
</glyph>
<glyph name="psi" format="2">
  <advance height="1000" width="560"/>
  <unicode hex="03C8"/>
  <outline>
    <contour>
      <point x="269" y="-220" type="line"/>
      <point x="285" y="-220" type="line"/>
      <point x="285" y="632" type="line"/>
      <point x="269" y="632" type="line"/>
    </contour>
    <contour>
      <point x="280" y="-8" type="curve" smooth="yes"/>
      <point x="409" y="-8"/>
      <point x="473" y="95"/>
      <point x="473" y="294" type="curve" smooth="yes"/>
      <point x="473" y="379"/>
      <point x="463" y="458"/>
      <point x="445" y="525" type="curve"/>
      <point x="429" y="525" type="line"/>
      <point x="447" y="460"/>
      <point x="457" y="381"/>
      <point x="457" y="294" type="curve" smooth="yes"/>
      <point x="457" y="89"/>
      <point x="387" y="7"/>
      <point x="280" y="7" type="curve" smooth="yes"/>
      <point x="175" y="7"/>
      <point x="103" y="90"/>
      <point x="103" y="232" type="curve" smooth="yes"/>
      <point x="103" y="525" type="line"/>
      <point x="87" y="525" type="line"/>
      <point x="87" y="232" type="line" smooth="yes"/>
      <point x="87" y="94"/>
      <point x="153" y="-8"/>
    </contour>
  </outline>
</glyph>
<glyph name="iotadieresis" format="2">
  <advance height="1000" width="179"/>
  <unicode hex="03CA"/>
  <outline>
    <contour>
      <point x="134" y="-3" type="curve" smooth="yes"/>
      <point x="146" y="-3"/>
      <point x="158" y="0"/>
      <point x="170" y="6" type="curve"/>
      <point x="170" y="22" type="line"/>
      <point x="158" y="15"/>
      <point x="148" y="12"/>
      <point x="135" y="12" type="curve" smooth="yes"/>
      <point x="101" y="12"/>
      <point x="91" y="32"/>
      <point x="91" y="72" type="curve" smooth="yes"/>
      <point x="91" y="525" type="line"/>
      <point x="75" y="525" type="line"/>
      <point x="75" y="71" type="line" smooth="yes"/>
      <point x="75" y="25"/>
      <point x="92" y="-3"/>
    </contour>
    <contour>
      <point x="3" y="590" type="line"/>
      <point x="31" y="590" type="line"/>
      <point x="31" y="618" type="line"/>
      <point x="3" y="618" type="line"/>
    </contour>
    <contour>
      <point x="135" y="590" type="line"/>
      <point x="163" y="590" type="line"/>
      <point x="163" y="618" type="line"/>
      <point x="135" y="618" type="line"/>
    </contour>
  </outline>
</glyph>
<glyph name="omegatonos" format="2">
  <advance height="1000" width="808"/>
  <unicode hex="03CE"/>
  <outline>
    <contour>
      <point x="241" y="0" type="curve" smooth="yes"/>
      <point x="329" y="0"/>
      <point x="389" y="59"/>
      <point x="403" y="150" type="curve"/>
      <point x="423" y="55"/>
      <point x="484" y="0"/>
      <point x="563" y="0" type="curve" smooth="yes"/>
      <point x="681" y="0"/>
      <point x="741" y="80"/>
      <point x="741" y="244" type="curve" smooth="yes"/>
      <point x="741" y="352"/>
      <point x="716" y="453"/>
      <point x="673" y="525" type="curve"/>
      <point x="653" y="525" type="line"/>
      <point x="697" y="457"/>
      <point x="725" y="351"/>
      <point x="725" y="240" type="curve" smooth="yes"/>
      <point x="725" y="89"/>
      <point x="671" y="15"/>
      <point x="563" y="15" type="curve" smooth="yes"/>
      <point x="470" y="15"/>
      <point x="412" y="96"/>
      <point x="412" y="227" type="curve" smooth="yes"/>
      <point x="412" y="525" type="line"/>
      <point x="396" y="525" type="line"/>
      <point x="396" y="224" type="line" smooth="yes"/>
      <point x="396" y="87"/>
      <point x="333" y="15"/>
      <point x="242" y="15" type="curve" smooth="yes"/>
      <point x="137" y="15"/>
      <point x="83" y="89"/>
      <point x="83" y="238" type="curve" smooth="yes"/>
      <point x="83" y="345"/>
      <point x="110" y="450"/>
      <point x="154" y="525" type="curve"/>
      <point x="135" y="525" type="line"/>
      <point x="92" y="442"/>
      <point x="67" y="337"/>
      <point x="67" y="233" type="curve" smooth="yes"/>
      <point x="67" y="77"/>
      <point x="127" y="0"/>
    </contour>
    <contour>
      <point x="387" y="582" type="line"/>
      <point x="402" y="582" type="line"/>
      <point x="456" y="748" type="line"/>
      <point x="440" y="748" type="line"/>
    </contour>
  </outline>
</glyph>
<glyph name="Djecyrillic" format="2">
  <advance height="1000" width="807"/>
  <unicode hex="0402"/>
  <outline>
    <contour>
      <point x="292" y="0" type="line"/>
      <point x="308" y="0" type="line"/>
      <point x="308" y="376" type="line"/>
      <point x="360" y="420"/>
      <point x="421" y="449"/>
      <point x="509" y="449" type="curve" smooth="yes"/>
      <point x="645" y="449"/>
      <point x="731" y="386"/>
      <point x="731" y="181" type="curve" smooth="yes"/>
      <point x="731" y="-29"/>
      <point x="648" y="-104"/>
      <point x="532" y="-104" type="curve" smooth="yes"/>
      <point x="486" y="-104"/>
      <point x="447" y="-93"/>
      <point x="413" y="-71" type="curve"/>
      <point x="413" y="-90" type="line"/>
      <point x="447" y="-110"/>
      <point x="486" y="-120"/>
      <point x="532" y="-120" type="curve" smooth="yes"/>
      <point x="656" y="-120"/>
      <point x="747" y="-39"/>
      <point x="747" y="181" type="curve" smooth="yes"/>
      <point x="747" y="396"/>
      <point x="655" y="465"/>
      <point x="509" y="465" type="curve" smooth="yes"/>
      <point x="423" y="465"/>
      <point x="354" y="434"/>
      <point x="308" y="394" type="curve"/>
      <point x="308" y="725" type="line"/>
      <point x="590" y="725" type="line"/>
      <point x="590" y="740" type="line"/>
      <point x="20" y="740" type="line"/>
      <point x="20" y="725" type="line"/>
      <point x="292" y="725" type="line"/>
    </contour>
  </outline>
</glyph>
<glyph name="Gjecyrillic" format="2">
  <advance height="1000" width="478"/>
  <unicode hex="0403"/>
  <outline>
    <contour>
      <point x="88" y="0" type="line"/>
      <point x="104" y="0" type="line"/>
      <point x="104" y="725" type="line"/>
      <point x="458" y="725" type="line"/>
      <point x="458" y="740" type="line"/>
      <point x="88" y="740" type="line"/>
    </contour>
    <contour>
      <point x="269" y="787" type="line"/>
      <point x="369" y="913" type="line"/>
      <point x="349" y="913" type="line"/>
      <point x="250" y="787" type="line"/>
    </contour>
  </outline>
</glyph>
<glyph name="Dzecyrillic" format="2">
  <advance height="1000" width="549"/>
  <unicode hex="0405"/>
  <outline>
    <contour>
      <point x="277" y="-8" type="curve" smooth="yes"/>
      <point x="397" y="-8"/>
      <point x="481" y="71"/>
      <point x="481" y="185" type="curve" smooth="yes"/>
      <point x="481" y="287"/>
      <point x="430" y="345"/>
      <point x="288" y="392" type="curve" smooth="yes"/>
      <point x="270" y="398" type="line" smooth="yes"/>
      <point x="151" y="438"/>
      <point x="104" y="487"/>
      <point x="104" y="575" type="curve" smooth="yes"/>
      <point x="104" y="671"/>
      <point x="177" y="733"/>
      <point x="287" y="733" type="curve" smooth="yes"/>
      <point x="346" y="733"/>
      <point x="404" y="712"/>
      <point x="471" y="675" type="curve"/>
      <point x="471" y="693" type="line"/>
      <point x="409" y="724"/>
      <point x="348" y="748"/>
      <point x="287" y="748" type="curve" smooth="yes"/>
      <point x="166" y="748"/>
      <point x="88" y="680"/>
      <point x="88" y="575" type="curve" smooth="yes"/>
      <point x="88" y="480"/>
      <point x="134" y="426"/>
      <point x="266" y="382" type="curve" smooth="yes"/>
      <point x="284" y="376" type="line" smooth="yes"/>
      <point x="413" y="333"/>
      <point x="465" y="280"/>
      <point x="465" y="185" type="curve" smooth="yes"/>
      <point x="465" y="79"/>
      <point x="388" y="8"/>
      <point x="277" y="8" type="curve" smooth="yes"/>
      <point x="204" y="8"/>
      <point x="131" y="36"/>
      <point x="68" y="80" type="curve"/>
      <point x="68" y="59" type="line"/>
      <point x="128" y="21"/>
      <point x="202" y="-8"/>
    </contour>
  </outline>
</glyph>
<glyph name="Icyrillic" format="2">
  <advance height="1000" width="192"/>
  <unicode hex="0406"/>
  <outline>
    <contour>
      <point x="88" y="0" type="line"/>
      <point x="104" y="0" type="line"/>
      <point x="104" y="740" type="line"/>
      <point x="88" y="740" type="line"/>
    </contour>
  </outline>
</glyph>
<glyph name="Yicyrillic" format="2">
  <advance height="1000" width="192"/>
  <unicode hex="0407"/>
  <outline>
    <contour>
      <point x="88" y="0" type="line"/>
      <point x="104" y="0" type="line"/>
      <point x="104" y="740" type="line"/>
      <point x="88" y="740" type="line"/>
    </contour>
    <contour>
      <point x="16" y="787" type="line"/>
      <point x="44" y="787" type="line"/>
      <point x="44" y="815" type="line"/>
      <point x="16" y="815" type="line"/>
    </contour>
    <contour>
      <point x="148" y="787" type="line"/>
      <point x="176" y="787" type="line"/>
      <point x="176" y="815" type="line"/>
      <point x="148" y="815" type="line"/>
    </contour>
  </outline>
</glyph>
<glyph name="Jecyrillic" format="2">
  <advance height="1000" width="314"/>
  <unicode hex="0408"/>
  <outline>
    <contour>
      <point x="103" y="-8" type="curve" smooth="yes"/>
      <point x="177" y="-8"/>
      <point x="226" y="37"/>
      <point x="226" y="123" type="curve" smooth="yes"/>
      <point x="226" y="740" type="line"/>
      <point x="210" y="740" type="line"/>
      <point x="210" y="123" type="line" smooth="yes"/>
      <point x="210" y="53"/>
      <point x="174" y="6"/>
      <point x="103" y="6" type="curve" smooth="yes"/>
      <point x="66" y="6"/>
      <point x="22" y="22"/>
      <point x="-8" y="46" type="curve"/>
      <point x="-8" y="28" type="line"/>
      <point x="22" y="6"/>
      <point x="65" y="-8"/>
    </contour>
  </outline>
</glyph>
<glyph name="Ljecyrillic" format="2">
  <advance height="1000" width="1056"/>
  <unicode hex="0409"/>
  <outline>
    <contour>
      <point x="53" y="-8" type="curve" smooth="yes"/>
      <point x="89" y="-8"/>
      <point x="119" y="3"/>
      <point x="143" y="27" type="curve" smooth="yes"/>
      <point x="193" y="77"/>
      <point x="217" y="160"/>
      <point x="217" y="570" type="curve" smooth="yes"/>
      <point x="217" y="725" type="line"/>
      <point x="579" y="725" type="line"/>
      <point x="579" y="0" type="line"/>
      <point x="755" y="0" type="line" smooth="yes"/>
      <point x="906" y="0"/>
      <point x="998" y="88"/>
      <point x="998" y="220" type="curve" smooth="yes"/>
      <point x="998" y="350"/>
      <point x="906" y="433"/>
      <point x="755" y="433" type="curve" smooth="yes"/>
      <point x="595" y="433" type="line"/>
      <point x="595" y="740" type="line"/>
      <point x="201" y="740" type="line"/>
      <point x="201" y="566" type="line" smooth="yes"/>
      <point x="201" y="152"/>
      <point x="174" y="81"/>
      <point x="132" y="39" type="curve" smooth="yes"/>
      <point x="108" y="15"/>
      <point x="81" y="8"/>
      <point x="55" y="8" type="curve" smooth="yes"/>
      <point x="41" y="8"/>
      <point x="28" y="10"/>
      <point x="16" y="14" type="curve"/>
      <point x="16" y="-4" type="line"/>
      <point x="24" y="-6"/>
      <point x="36" y="-8"/>
    </contour>
    <contour>
      <point x="595" y="15" type="line"/>
      <point x="595" y="418" type="line"/>
      <point x="755" y="418" type="line" smooth="yes"/>
      <point x="896" y="418"/>
      <point x="982" y="340"/>
      <point x="982" y="220" type="curve" smooth="yes"/>
      <point x="982" y="98"/>
      <point x="896" y="15"/>
      <point x="755" y="15" type="curve" smooth="yes"/>
    </contour>
  </outline>
</glyph>
<glyph name="Kjecyrillic" format="2">
  <advance height="1000" width="547"/>
  <unicode hex="040C"/>
  <outline>
    <contour>
      <point x="88" y="0" type="line"/>
      <point x="104" y="0" type="line"/>
      <point x="104" y="378" type="line"/>
      <point x="192" y="378" type="line"/>
      <point x="482" y="0" type="line"/>
      <point x="503" y="0" type="line"/>
      <point x="206" y="386" type="line"/>
      <point x="487" y="740" type="line"/>
      <point x="467" y="740" type="line"/>
      <point x="192" y="393" type="line"/>
      <point x="104" y="393" type="line"/>
      <point x="104" y="740" type="line"/>
      <point x="88" y="740" type="line"/>
    </contour>
    <contour>
      <point x="265" y="787" type="line"/>
      <point x="365" y="913" type="line"/>
      <point x="345" y="913" type="line"/>
      <point x="246" y="787" type="line"/>
    </contour>
  </outline>
</glyph>
<glyph name="Dzhecyrillic" format="2">
  <advance height="1000" width="684"/>
  <unicode hex="040F"/>
  <outline>
    <contour>
      <point x="88" y="0" type="line"/>
      <point x="334" y="0" type="line"/>
      <point x="334" y="-143" type="line"/>
      <point x="350" y="-143" type="line"/>
      <point x="350" y="0" type="line"/>
      <point x="596" y="0" type="line"/>
      <point x="596" y="740" type="line"/>
      <point x="580" y="740" type="line"/>
      <point x="580" y="15" type="line"/>
      <point x="104" y="15" type="line"/>
      <point x="104" y="740" type="line"/>
      <point x="88" y="740" type="line"/>
    </contour>
  </outline>
</glyph>
<glyph name="Becyrillic" format="2">
  <advance height="1000" width="561"/>
  <unicode hex="0411"/>
  <outline>
    <contour>
      <point x="88" y="0" type="line"/>
      <point x="265" y="0" type="line" smooth="yes"/>
      <point x="411" y="0"/>
      <point x="501" y="86"/>
      <point x="501" y="214" type="curve" smooth="yes"/>
      <point x="501" y="340"/>
      <point x="411" y="421"/>
      <point x="265" y="421" type="curve" smooth="yes"/>
      <point x="104" y="421" type="line"/>
      <point x="104" y="725" type="line"/>
      <point x="448" y="725" type="line"/>
      <point x="448" y="740" type="line"/>
      <point x="88" y="740" type="line"/>
    </contour>
    <contour>
      <point x="104" y="406" type="line"/>
      <point x="265" y="406" type="line" smooth="yes"/>
      <point x="402" y="406"/>
      <point x="485" y="330"/>
      <point x="485" y="214" type="curve" smooth="yes"/>
      <point x="485" y="96"/>
      <point x="402" y="15"/>
      <point x="265" y="15" type="curve" smooth="yes"/>
      <point x="104" y="15" type="line"/>
    </contour>
  </outline>
</glyph>
<glyph name="Gecyrillic" format="2">
  <advance height="1000" width="478"/>
  <unicode hex="0413"/>
  <outline>
    <contour>
      <point x="88" y="0" type="line"/>
      <point x="104" y="0" type="line"/>
      <point x="104" y="725" type="line"/>
      <point x="458" y="725" type="line"/>
      <point x="458" y="740" type="line"/>
      <point x="88" y="740" type="line"/>
    </contour>
  </outline>
</glyph>
<glyph name="Zecyrillic" format="2">
  <advance height="1000" width="555"/>
  <unicode hex="0417"/>
  <outline>
    <contour>
      <point x="50" y="64" type="curve"/>
      <point x="50" y="45" type="line"/>
      <point x="106" y="13"/>
      <point x="174" y="-8"/>
      <point x="252" y="-8" type="curve" smooth="yes"/>
      <point x="404" y="-8"/>
      <point x="487" y="74"/>
      <point x="487" y="194" type="curve" smooth="yes"/>
      <point x="487" y="278"/>
      <point x="436" y="348"/>
      <point x="334" y="374" type="curve"/>
      <point x="418" y="400"/>
      <point x="468" y="465"/>
      <point x="468" y="559" type="curve" smooth="yes"/>
      <point x="468" y="679"/>
      <point x="392" y="750"/>
      <point x="258" y="750" type="curve" smooth="yes"/>
      <point x="200" y="750"/>
      <point x="126" y="733"/>
      <point x="73" y="708" type="curve"/>
      <point x="73" y="691" type="line"/>
      <point x="127" y="717"/>
      <point x="201" y="734"/>
      <point x="258" y="734" type="curve" smooth="yes"/>
      <point x="384" y="734"/>
      <point x="452" y="669"/>
      <point x="452" y="559" type="curve" smooth="yes"/>
      <point x="452" y="461"/>
      <point x="385" y="381"/>
      <point x="267" y="381" type="curve" smooth="yes"/>
      <point x="187" y="381" type="line"/>
      <point x="187" y="366" type="line"/>
      <point x="267" y="366" type="line" smooth="yes"/>
      <point x="389" y="366"/>
      <point x="471" y="294"/>
      <point x="471" y="194" type="curve" smooth="yes"/>
      <point x="471" y="82"/>
      <point x="392" y="8"/>
      <point x="252" y="8" type="curve" smooth="yes"/>
      <point x="174" y="8"/>
      <point x="106" y="30"/>
    </contour>
  </outline>
</glyph>
<glyph name="Iishortcyrillic" format="2">
  <advance height="1000" width="730"/>
  <unicode hex="0419"/>
  <outline>
    <contour>
      <point x="88" y="0" type="line"/>
      <point x="104" y="0" type="line"/>
      <point x="626" y="715" type="line"/>
      <point x="626" y="0" type="line"/>
      <point x="642" y="0" type="line"/>
      <point x="642" y="740" type="line"/>
      <point x="626" y="740" type="line"/>
      <point x="104" y="25" type="line"/>
      <point x="104" y="740" type="line"/>
      <point x="88" y="740" type="line"/>
    </contour>
    <contour>
      <point x="259" y="948" type="curve"/>
      <point x="244" y="948" type="line"/>
      <point x="244" y="868"/>
      <point x="290" y="827"/>
      <point x="355" y="827" type="curve" smooth="yes"/>
      <point x="420" y="827"/>
      <point x="466" y="868"/>
      <point x="466" y="948" type="curve"/>
      <point x="451" y="948" type="line"/>
      <point x="451" y="881"/>
      <point x="412" y="841"/>
      <point x="355" y="841" type="curve" smooth="yes"/>
      <point x="298" y="841"/>
      <point x="259" y="881"/>
    </contour>
  </outline>
</glyph>
<glyph name="Elcyrillic" format="2">
  <advance width="723"/>
  <unicode hex="041B"/>
  <outline>
    <contour>
      <point x="16" y="14" type="curve"/>
      <point x="16" y="-4" type="line"/>
      <point x="24" y="-6"/>
      <point x="36" y="-8"/>
      <point x="53" y="-8" type="curve" smooth="yes"/>
      <point x="89" y="-8"/>
      <point x="119" y="3"/>
      <point x="143" y="27" type="curve" smooth="yes"/>
      <point x="193" y="77"/>
      <point x="217" y="160"/>
      <point x="217" y="570" type="curve" smooth="yes"/>
      <point x="217" y="725" type="line"/>
      <point x="619" y="725" type="line"/>
      <point x="619" y="0" type="line"/>
      <point x="635" y="0" type="line"/>
      <point x="635" y="740" type="line"/>
      <point x="201" y="740" type="line"/>
      <point x="201" y="566" type="line" smooth="yes"/>
      <point x="201" y="152"/>
      <point x="174" y="81"/>
      <point x="132" y="39" type="curve" smooth="yes"/>
      <point x="108" y="15"/>
      <point x="81" y="8"/>
      <point x="55" y="8" type="curve" smooth="yes"/>
      <point x="41" y="8"/>
      <point x="28" y="10"/>
    </contour>
  </outline>
</glyph>
<glyph name="Emcyrillic" format="2">
  <advance height="1000" width="786"/>
  <unicode hex="041C"/>
  <outline>
    <contour>
      <point x="88.0" y="0.0" type="line"/>
      <point x="103.0" y="0.0" type="line"/>
      <point x="103.0" y="706.0" type="line"/>
      <point x="388.0" y="138.0" type="line"/>
      <point x="398.0" y="138.0" type="line"/>
      <point x="682.0" y="706.0" type="line"/>
      <point x="682.0" y="0.0" type="line"/>
      <point x="698.0" y="0.0" type="line"/>
      <point x="698.0" y="740.0" type="line"/>
      <point x="682.0" y="740.0" type="line"/>
      <point x="394.0" y="162.0" type="line"/>
      <point x="104.0" y="740.0" type="line"/>
      <point x="88.0" y="740.0" type="line"/>
    </contour>
  </outline>
</glyph>
<glyph name="Encyrillic" format="2">
  <advance height="1000" width="723"/>
  <unicode hex="041D"/>
  <outline>
    <contour>
      <point x="88" y="0" type="line"/>
      <point x="104" y="0" type="line"/>
      <point x="104" y="370" type="line"/>
      <point x="619" y="370" type="line"/>
      <point x="619" y="0" type="line"/>
      <point x="635" y="0" type="line"/>
      <point x="635" y="740" type="line"/>
      <point x="619" y="740" type="line"/>
      <point x="619" y="385" type="line"/>
      <point x="104" y="385" type="line"/>
      <point x="104" y="740" type="line"/>
      <point x="88" y="740" type="line"/>
    </contour>
  </outline>
</glyph>
<glyph name="Pecyrillic" format="2">
  <advance height="1000" width="703"/>
  <unicode hex="041F"/>
  <outline>
    <contour>
      <point x="88" y="0" type="line"/>
      <point x="104" y="0" type="line"/>
      <point x="104" y="725" type="line"/>
      <point x="599" y="725" type="line"/>
      <point x="599" y="0" type="line"/>
      <point x="615" y="0" type="line"/>
      <point x="615" y="740" type="line"/>
      <point x="88" y="740" type="line"/>
    </contour>
  </outline>
</glyph>
<glyph name="Tecyrillic" format="2">
  <advance height="1000" width="600"/>
  <unicode hex="0422"/>
  <outline>
    <contour>
      <point x="292" y="0" type="line"/>
      <point x="308" y="0" type="line"/>
      <point x="308" y="725" type="line"/>
      <point x="580" y="725" type="line"/>
      <point x="580" y="740" type="line"/>
      <point x="20" y="740" type="line"/>
      <point x="20" y="725" type="line"/>
      <point x="292" y="725" type="line"/>
    </contour>
  </outline>
</glyph>
<glyph name="Efcyrillic" format="2">
  <advance height="1000" width="922"/>
  <unicode hex="0424"/>
  <outline>
    <contour>
      <point x="75" y="374" type="curve" smooth="yes"/>
      <point x="75" y="548"/>
      <point x="209" y="672"/>
      <point x="447" y="672" type="curve" smooth="yes"/>
      <point x="453" y="672" type="line"/>
      <point x="453" y="77" type="line"/>
      <point x="447" y="77" type="line" smooth="yes"/>
      <point x="209" y="77"/>
      <point x="75" y="200"/>
    </contour>
    <contour>
      <point x="469" y="61" type="line"/>
      <point x="475" y="61" type="line" smooth="yes"/>
      <point x="723" y="61"/>
      <point x="864" y="191"/>
      <point x="864" y="375" type="curve" smooth="yes"/>
      <point x="864" y="559"/>
      <point x="723" y="688"/>
      <point x="474" y="688" type="curve" smooth="yes"/>
      <point x="469" y="688" type="line"/>
      <point x="469" y="763" type="line"/>
      <point x="453" y="763" type="line"/>
      <point x="453" y="688" type="line"/>
      <point x="447" y="688" type="line" smooth="yes"/>
      <point x="199" y="688"/>
      <point x="58" y="558"/>
      <point x="58" y="374" type="curve" smooth="yes"/>
      <point x="58" y="190"/>
      <point x="199" y="61"/>
      <point x="448" y="61" type="curve" smooth="yes"/>
      <point x="453" y="61" type="line"/>
      <point x="453" y="-22" type="line"/>
      <point x="469" y="-22" type="line"/>
    </contour>
    <contour>
      <point x="847" y="375" type="curve" smooth="yes"/>
      <point x="847" y="201"/>
      <point x="713" y="77"/>
      <point x="475" y="77" type="curve" smooth="yes"/>
      <point x="469" y="77" type="line"/>
      <point x="469" y="672" type="line"/>
      <point x="475" y="672" type="line" smooth="yes"/>
      <point x="713" y="672"/>
      <point x="847" y="549"/>
    </contour>
  </outline>
</glyph>
<glyph name="Checyrillic" format="2">
  <advance height="1000" width="619"/>
  <unicode hex="0427"/>
  <outline>
    <contour>
      <point x="515" y="0" type="line"/>
      <point x="531" y="0" type="line"/>
      <point x="531" y="740" type="line"/>
      <point x="515" y="740" type="line"/>
      <point x="515" y="367" type="line"/>
      <point x="459" y="317"/>
      <point x="386" y="291"/>
      <point x="286" y="291" type="curve" smooth="yes"/>
      <point x="152" y="291"/>
      <point x="80" y="346"/>
      <point x="80" y="486" type="curve" smooth="yes"/>
      <point x="80" y="740" type="line"/>
      <point x="64" y="740" type="line"/>
      <point x="64" y="486" type="line" smooth="yes"/>
      <point x="64" y="336"/>
      <point x="142" y="275"/>
      <point x="286" y="275" type="curve" smooth="yes"/>
      <point x="390" y="275"/>
      <point x="465" y="305"/>
      <point x="515" y="349" type="curve"/>
    </contour>
  </outline>
</glyph>
<glyph name="Hardsigncyrillic" format="2">
  <advance height="1000" width="749"/>
  <unicode hex="042A"/>
  <outline>
    <contour>
      <point x="262" y="0" type="line"/>
      <point x="448" y="0" type="line" smooth="yes"/>
      <point x="599" y="0"/>
      <point x="691" y="88"/>
      <point x="691" y="220" type="curve" smooth="yes"/>
      <point x="691" y="350"/>
      <point x="599" y="433"/>
      <point x="448" y="433" type="curve" smooth="yes"/>
      <point x="278" y="433" type="line"/>
      <point x="278" y="740" type="line"/>
      <point x="20" y="740" type="line"/>
      <point x="20" y="725" type="line"/>
      <point x="262" y="725" type="line"/>
    </contour>
    <contour>
      <point x="278" y="15" type="line"/>
      <point x="278" y="418" type="line"/>
      <point x="448" y="418" type="line" smooth="yes"/>
      <point x="589" y="418"/>
      <point x="675" y="340"/>
      <point x="675" y="220" type="curve" smooth="yes"/>
      <point x="675" y="98"/>
      <point x="589" y="15"/>
      <point x="448" y="15" type="curve" smooth="yes"/>
    </contour>
  </outline>
</glyph>
<glyph name="Ereversedcyrillic" format="2">
  <advance height="1000" width="708"/>
  <unicode hex="042D"/>
  <outline>
    <contour>
      <point x="189" y="366" type="line" name="hr00"/>
      <point x="638" y="366" type="line"/>
      <point x="638" y="381" type="line"/>
      <point x="189" y="381" type="line"/>
    </contour>
    <contour>
      <point x="50" y="64" type="curve"/>
      <point x="50" y="45" type="line"/>
      <point x="120" y="10"/>
      <point x="191" y="-8"/>
      <point x="272" y="-8" type="curve" smooth="yes"/>
      <point x="497" y="-8"/>
      <point x="648" y="143"/>
      <point x="648" y="372" type="curve" smooth="yes"/>
      <point x="648" y="599"/>
      <point x="497" y="750"/>
      <point x="272" y="750" type="curve" smooth="yes"/>
      <point x="194" y="750"/>
      <point x="127" y="738"/>
      <point x="57" y="708" type="curve"/>
      <point x="57" y="691" type="line"/>
      <point x="124" y="721"/>
      <point x="197" y="734"/>
      <point x="272" y="734" type="curve" smooth="yes"/>
      <point x="488" y="734"/>
      <point x="632" y="589"/>
      <point x="632" y="372" type="curve" smooth="yes"/>
      <point x="632" y="154"/>
      <point x="488" y="8"/>
      <point x="272" y="8" type="curve" smooth="yes"/>
      <point x="195" y="8"/>
      <point x="118" y="26"/>
    </contour>
  </outline>
</glyph>
<glyph name="IUcyrillic" format="2">
  <advance height="1000" width="998"/>
  <unicode hex="042E"/>
  <outline>
    <contour>
      <point x="88" y="1" type="line"/>
      <point x="104" y="1" type="line"/>
      <point x="104" y="370" type="line"/>
      <point x="258" y="370" type="line"/>
      <point x="258" y="385" type="line"/>
      <point x="104" y="385" type="line"/>
      <point x="104" y="740" type="line"/>
      <point x="88" y="740" type="line"/>
    </contour>
    <contour>
      <point x="249" y="371" type="curve" smooth="yes"/>
      <point x="249" y="142"/>
      <point x="387" y="-8"/>
      <point x="593" y="-8" type="curve" smooth="yes"/>
      <point x="800" y="-8"/>
      <point x="938" y="140"/>
      <point x="938" y="371" type="curve" smooth="yes"/>
      <point x="938" y="599"/>
      <point x="800" y="749"/>
      <point x="593" y="749" type="curve" smooth="yes"/>
      <point x="387" y="749"/>
      <point x="249" y="601"/>
    </contour>
    <contour>
      <point x="266" y="371" type="curve" smooth="yes"/>
      <point x="266" y="591"/>
      <point x="397" y="733"/>
      <point x="593" y="733" type="curve" smooth="yes"/>
      <point x="790" y="733"/>
      <point x="921" y="590"/>
      <point x="921" y="371" type="curve" smooth="yes"/>
      <point x="921" y="151"/>
      <point x="790" y="8"/>
      <point x="593" y="8" type="curve" smooth="yes"/>
      <point x="397" y="8"/>
      <point x="266" y="151"/>
    </contour>
  </outline>
</glyph>
<glyph name="IAcyrillic" format="2">
  <advance height="1000" width="611"/>
  <unicode hex="042F"/>
  <outline>
    <contour>
      <point x="60" y="0" type="line"/>
      <point x="81" y="0" type="line"/>
      <point x="341" y="339" type="line"/>
      <point x="507" y="339" type="line"/>
      <point x="507" y="0" type="line"/>
      <point x="523" y="0" type="line"/>
      <point x="523" y="740" type="line"/>
      <point x="330" y="740" type="line" smooth="yes"/>
      <point x="180" y="740"/>
      <point x="94" y="660"/>
      <point x="94" y="536" type="curve" smooth="yes"/>
      <point x="94" y="416"/>
      <point x="175" y="343"/>
      <point x="321" y="339" type="curve"/>
    </contour>
    <contour>
      <point x="507" y="354" type="line"/>
      <point x="330" y="354" type="line" smooth="yes"/>
      <point x="194" y="354"/>
      <point x="110" y="420"/>
      <point x="110" y="536" type="curve" smooth="yes"/>
      <point x="110" y="654"/>
      <point x="192" y="725"/>
      <point x="330" y="725" type="curve" smooth="yes"/>
      <point x="507" y="725" type="line"/>
    </contour>
  </outline>
</glyph>
<glyph name="acyrillic" format="2">
  <advance height="1000" width="454"/>
  <unicode hex="0430"/>
  <outline>
    <contour>
      <point x="210" y="-8" type="curve" smooth="yes"/>
      <point x="277" y="-8"/>
      <point x="330" y="18"/>
      <point x="366" y="68" type="curve"/>
      <point x="369" y="0" type="line"/>
      <point x="382" y="0" type="line"/>
      <point x="382" y="369" type="line" smooth="yes"/>
      <point x="382" y="470"/>
      <point x="322" y="533"/>
      <point x="227" y="533" type="curve" smooth="yes"/>
      <point x="176" y="533"/>
      <point x="121" y="517"/>
      <point x="71" y="480" type="curve"/>
      <point x="71" y="461" type="line"/>
      <point x="114" y="498"/>
      <point x="179" y="518"/>
      <point x="227" y="518" type="curve" smooth="yes"/>
      <point x="311" y="518"/>
      <point x="366" y="459"/>
      <point x="366" y="369" type="curve" smooth="yes"/>
      <point x="366" y="308" type="line"/>
      <point x="223" y="292" type="line" smooth="yes"/>
      <point x="120" y="280"/>
      <point x="52" y="219"/>
      <point x="52" y="137" type="curve" smooth="yes"/>
      <point x="52" y="49"/>
      <point x="117" y="-8"/>
    </contour>
    <contour>
      <point x="210" y="7" type="curve" smooth="yes"/>
      <point x="127" y="7"/>
      <point x="68" y="58"/>
      <point x="68" y="137" type="curve" smooth="yes"/>
      <point x="68" y="211"/>
      <point x="130" y="265"/>
      <point x="225" y="276" type="curve" smooth="yes"/>
      <point x="366" y="293" type="line"/>
      <point x="366" y="92" type="line"/>
      <point x="330" y="36"/>
      <point x="276" y="7"/>
    </contour>
  </outline>
</glyph>
<glyph name="vecyrillic" format="2">
  <advance height="1000" width="466"/>
  <unicode hex="0432"/>
  <outline>
    <contour>
      <point x="76" y="0" type="line"/>
      <point x="241" y="0" type="line" smooth="yes"/>
      <point x="347" y="0"/>
      <point x="414" y="63"/>
      <point x="414" y="140" type="curve" smooth="yes"/>
      <point x="414" y="206"/>
      <point x="370" y="253"/>
      <point x="296" y="268" type="curve"/>
      <point x="356" y="284"/>
      <point x="394" y="332"/>
      <point x="394" y="394" type="curve" smooth="yes"/>
      <point x="394" y="470"/>
      <point x="335" y="525"/>
      <point x="229" y="525" type="curve" smooth="yes"/>
      <point x="76" y="525" type="line"/>
    </contour>
    <contour>
      <point x="92" y="275" type="line"/>
      <point x="92" y="510" type="line"/>
      <point x="229" y="510" type="line" smooth="yes"/>
      <point x="327" y="510"/>
      <point x="378" y="460"/>
      <point x="378" y="394" type="curve" smooth="yes"/>
      <point x="378" y="326"/>
      <point x="325" y="275"/>
      <point x="249" y="275" type="curve" smooth="yes"/>
    </contour>
    <contour>
      <point x="92" y="15" type="line"/>
      <point x="92" y="260" type="line"/>
      <point x="249" y="260" type="line" smooth="yes"/>
      <point x="341" y="260"/>
      <point x="398" y="206"/>
      <point x="398" y="140" type="curve" smooth="yes"/>
      <point x="398" y="68"/>
      <point x="332" y="15"/>
      <point x="241" y="15" type="curve" smooth="yes"/>
    </contour>
  </outline>
</glyph>
<glyph name="decyrillic" format="2">
  <advance height="1000" width="599"/>
  <unicode hex="0434"/>
  <outline>
    <contour>
      <point x="30" y="-128" type="line"/>
      <point x="30" y="0" type="line"/>
      <point x="551" y="0" type="line"/>
      <point x="551" y="-128" type="line"/>
      <point x="567" y="-128" type="line"/>
      <point x="567" y="15" type="line"/>
      <point x="477" y="15" type="line"/>
      <point x="477" y="525" type="line"/>
      <point x="157" y="525" type="line"/>
      <point x="157" y="441" type="line" smooth="yes"/>
      <point x="157" y="192"/>
      <point x="130" y="95"/>
      <point x="80" y="15" type="curve"/>
      <point x="14" y="15" type="line"/>
      <point x="14" y="-128" type="line"/>
    </contour>
    <contour>
      <point x="461" y="510" type="line"/>
      <point x="461" y="15" type="line"/>
      <point x="100" y="15" type="line"/>
      <point x="146" y="93"/>
      <point x="173" y="195"/>
      <point x="173" y="445" type="curve" smooth="yes"/>
      <point x="173" y="510" type="line"/>
    </contour>
  </outline>
</glyph>
<glyph name="iishortcyrillic" format="2">
  <advance height="1000" width="527"/>
  <unicode hex="0439"/>
  <outline>
    <contour>
      <point x="76" y="0" type="line"/>
      <point x="92" y="0" type="line"/>
      <point x="435" y="498" type="line"/>
      <point x="435" y="0" type="line"/>
      <point x="451" y="0" type="line"/>
      <point x="451" y="525" type="line"/>
      <point x="435" y="525" type="line"/>
      <point x="92" y="27" type="line"/>
      <point x="92" y="525" type="line"/>
      <point x="76" y="525" type="line"/>
    </contour>
    <contour>
      <point x="165" y="743" type="curve"/>
      <point x="150" y="743" type="line"/>
      <point x="150" y="663"/>
      <point x="196" y="622"/>
      <point x="261" y="622" type="curve" smooth="yes"/>
      <point x="326" y="622"/>
      <point x="372" y="663"/>
      <point x="372" y="743" type="curve"/>
      <point x="357" y="743" type="line"/>
      <point x="357" y="676"/>
      <point x="318" y="636"/>
      <point x="261" y="636" type="curve" smooth="yes"/>
      <point x="204" y="636"/>
      <point x="165" y="676"/>
    </contour>
  </outline>
</glyph>
<glyph name="elcyrillic" format="2">
  <advance height="1000" width="533"/>
  <unicode hex="043B"/>
  <outline>
    <contour>
      <point x="6" y="11" type="curve" name="hr00"/>
      <point x="6" y="-5" type="line"/>
      <point x="14" y="-7"/>
      <point x="25" y="-8"/>
      <point x="33" y="-8" type="curve" smooth="yes"/>
      <point x="63" y="-8"/>
      <point x="83" y="-1"/>
      <point x="101" y="17" type="curve" smooth="yes"/>
      <point x="137" y="53"/>
      <point x="153" y="113"/>
      <point x="153" y="423" type="curve" smooth="yes"/>
      <point x="153" y="510" type="line"/>
      <point x="441" y="510" type="line"/>
      <point x="441" y="0" type="line"/>
      <point x="457" y="0" type="line"/>
      <point x="457" y="525" type="line"/>
      <point x="137" y="525" type="line"/>
      <point x="137" y="419" type="line" smooth="yes"/>
      <point x="137" y="111"/>
      <point x="120" y="59"/>
      <point x="90" y="29" type="curve" smooth="yes"/>
      <point x="74" y="13"/>
      <point x="60" y="8"/>
      <point x="35" y="8" type="curve" smooth="yes"/>
      <point x="25" y="8"/>
      <point x="14" y="9"/>
    </contour>
  </outline>
</glyph>
<glyph name="emcyrillic" format="2">
  <advance height="1000" width="660"/>
  <unicode hex="043C"/>
  <outline>
    <contour>
      <point x="76" y="0" type="line"/>
      <point x="91" y="0" type="line"/>
      <point x="91" y="496" type="line"/>
      <point x="325" y="94" type="line"/>
      <point x="334" y="94" type="line"/>
      <point x="568" y="496" type="line"/>
      <point x="568" y="0" type="line"/>
      <point x="584" y="0" type="line"/>
      <point x="584" y="525" type="line"/>
      <point x="568" y="525" type="line"/>
      <point x="330" y="117" type="line"/>
      <point x="92" y="525" type="line"/>
      <point x="76" y="525" type="line"/>
    </contour>
  </outline>
</glyph>
<glyph name="ocyrillic" format="2">
  <advance height="1000" width="600"/>
  <unicode hex="043E"/>
  <outline>
    <contour>
      <point x="300.0" y="-8.0" type="curve" smooth="yes"/>
      <point x="451.0" y="-8.0"/>
      <point x="552.0" y="100.0"/>
      <point x="552.0" y="261.0" type="curve" smooth="yes"/>
      <point x="552.0" y="422.0"/>
      <point x="451.0" y="533.0"/>
      <point x="300.0" y="533.0" type="curve" smooth="yes"/>
      <point x="149.0" y="533.0"/>
      <point x="48.0" y="422.0"/>
      <point x="48.0" y="261.0" type="curve" smooth="yes"/>
      <point x="48.0" y="100.0"/>
      <point x="149.0" y="-8.0"/>
    </contour>
    <contour>
      <point x="300.0" y="7.0" type="curve" smooth="yes"/>
      <point x="158.0" y="7.0"/>
      <point x="64.0" y="109.0"/>
      <point x="64.0" y="261.0" type="curve" smooth="yes"/>
      <point x="64.0" y="412.0"/>
      <point x="158.0" y="518.0"/>
      <point x="300.0" y="518.0" type="curve" smooth="yes"/>
      <point x="442.0" y="518.0"/>
      <point x="536.0" y="412.0"/>
      <point x="536.0" y="261.0" type="curve" smooth="yes"/>
      <point x="536.0" y="109.0"/>
      <point x="442.0" y="7.0"/>
    </contour>
  </outline>
</glyph>
<glyph name="pecyrillic" format="2">
  <advance height="1000" width="511"/>
  <unicode hex="043F"/>
  <outline>
    <contour>
      <point x="76" y="0" type="line"/>
      <point x="92" y="0" type="line"/>
      <point x="92" y="510" type="line"/>
      <point x="419" y="510" type="line"/>
      <point x="419" y="0" type="line"/>
      <point x="435" y="0" type="line"/>
      <point x="435" y="525" type="line"/>
      <point x="76" y="525" type="line"/>
    </contour>
  </outline>
</glyph>
<glyph name="ercyrillic" format="2">
  <advance height="1000" width="535"/>
  <unicode hex="0440"/>
  <outline>
    <contour>
      <point x="76" y="-197" type="line"/>
      <point x="92" y="-197" type="line"/>
      <point x="92" y="47" type="line"/>
      <point x="135" y="14"/>
      <point x="197" y="-8"/>
      <point x="250" y="-8" type="curve" smooth="yes"/>
      <point x="387" y="-8"/>
      <point x="487" y="104"/>
      <point x="487" y="269" type="curve" smooth="yes"/>
      <point x="487" y="428"/>
      <point x="396" y="534"/>
      <point x="256" y="534" type="curve" smooth="yes"/>
      <point x="196" y="534"/>
      <point x="140" y="513"/>
      <point x="92" y="475" type="curve"/>
      <point x="92" y="525" type="line"/>
      <point x="76" y="525" type="line"/>
    </contour>
    <contour>
      <point x="250" y="7" type="curve" smooth="yes"/>
      <point x="196" y="7"/>
      <point x="133" y="33"/>
      <point x="92" y="69" type="curve"/>
      <point x="92" y="454" type="line"/>
      <point x="138" y="496"/>
      <point x="196" y="519"/>
      <point x="256" y="519" type="curve" smooth="yes"/>
      <point x="387" y="519"/>
      <point x="471" y="418"/>
      <point x="471" y="269" type="curve" smooth="yes"/>
      <point x="471" y="112"/>
      <point x="378" y="7"/>
    </contour>
  </outline>
</glyph>
<glyph name="tecyrillic" format="2">
  <advance height="1000" width="422"/>
  <unicode hex="0442"/>
  <outline>
    <contour>
      <point x="219" y="0" type="line"/>
      <point x="219" y="510" type="line"/>
      <point x="406" y="510" type="line"/>
      <point x="406" y="525" type="line"/>
      <point x="16" y="525" type="line"/>
      <point x="16" y="510" type="line"/>
      <point x="203" y="510" type="line"/>
      <point x="203" y="0" type="line"/>
    </contour>
  </outline>
</glyph>
<glyph name="efcyrillic" format="2">
  <advance height="1000" width="702"/>
  <unicode hex="0444"/>
  <outline>
    <contour>
      <point x="359" y="720" type="line" name="hr00"/>
      <point x="343" y="720" type="line"/>
      <point x="343" y="533" type="line"/>
      <point x="143" y="529"/>
      <point x="48" y="422"/>
      <point x="48" y="262" type="curve" smooth="yes"/>
      <point x="48" y="102"/>
      <point x="143" y="-4"/>
      <point x="343" y="-8" type="curve"/>
      <point x="343" y="-197" type="line"/>
      <point x="359" y="-197" type="line"/>
      <point x="359" y="-8" type="line"/>
      <point x="559" y="-4"/>
      <point x="654" y="103"/>
      <point x="654" y="263" type="curve" smooth="yes"/>
      <point x="654" y="423"/>
      <point x="559" y="529"/>
      <point x="359" y="533" type="curve"/>
    </contour>
    <contour>
      <point x="343" y="7" type="line"/>
      <point x="153" y="11"/>
      <point x="64" y="113"/>
      <point x="64" y="263" type="curve" smooth="yes"/>
      <point x="64" y="411"/>
      <point x="153" y="514"/>
      <point x="343" y="518" type="curve"/>
    </contour>
    <contour>
      <point x="359" y="518" type="line"/>
      <point x="549" y="514"/>
      <point x="638" y="412"/>
      <point x="638" y="262" type="curve" smooth="yes"/>
      <point x="638" y="114"/>
      <point x="549" y="11"/>
      <point x="359" y="7" type="curve"/>
    </contour>
  </outline>
</glyph>
<glyph name="shacyrillic" format="2">
  <advance height="1000" width="748"/>
  <unicode hex="0448"/>
  <outline>
    <contour>
      <point x="76" y="0" type="line"/>
      <point x="672" y="0" type="line"/>
      <point x="672" y="525" type="line"/>
      <point x="656" y="525" type="line"/>
      <point x="656" y="15" type="line"/>
      <point x="382" y="15" type="line"/>
      <point x="382" y="525" type="line"/>
      <point x="366" y="525" type="line"/>
      <point x="366" y="15" type="line"/>
      <point x="92" y="15" type="line"/>
      <point x="92" y="525" type="line"/>
      <point x="76" y="525" type="line"/>
    </contour>
  </outline>
</glyph>
<glyph name="shchacyrillic" format="2">
  <advance height="1000" width="794"/>
  <unicode hex="0449"/>
  <outline>
    <contour>
      <point x="76" y="0" type="line"/>
      <point x="746" y="0" type="line"/>
      <point x="746" y="-128" type="line"/>
      <point x="762" y="-128" type="line"/>
      <point x="762" y="15" type="line"/>
      <point x="672" y="15" type="line"/>
      <point x="672" y="525" type="line"/>
      <point x="656" y="525" type="line"/>
      <point x="656" y="15" type="line"/>
      <point x="382" y="15" type="line"/>
      <point x="382" y="525" type="line"/>
      <point x="366" y="525" type="line"/>
      <point x="366" y="15" type="line"/>
      <point x="92" y="15" type="line"/>
      <point x="92" y="525" type="line"/>
      <point x="76" y="525" type="line"/>
    </contour>
  </outline>
</glyph>
<glyph name="hardsigncyrillic" format="2">
  <advance height="1000" width="578"/>
  <unicode hex="044A"/>
  <outline>
    <contour>
      <point x="189" y="0" type="line"/>
      <point x="363" y="0" type="line" smooth="yes"/>
      <point x="471" y="0"/>
      <point x="540" y="67"/>
      <point x="540" y="157" type="curve" smooth="yes"/>
      <point x="540" y="251"/>
      <point x="471" y="312"/>
      <point x="363" y="312" type="curve" smooth="yes"/>
      <point x="205" y="312" type="line"/>
      <point x="205" y="525" type="line"/>
      <point x="16" y="525" type="line"/>
      <point x="16" y="510" type="line"/>
      <point x="189" y="510" type="line"/>
    </contour>
    <contour>
      <point x="205" y="297" type="line"/>
      <point x="363" y="297" type="line" smooth="yes"/>
      <point x="463" y="297"/>
      <point x="524" y="239"/>
      <point x="524" y="157" type="curve" smooth="yes"/>
      <point x="524" y="77"/>
      <point x="463" y="15"/>
      <point x="363" y="15" type="curve" smooth="yes"/>
      <point x="205" y="15" type="line"/>
    </contour>
  </outline>
</glyph>
<glyph name="iacyrillic" format="2">
  <advance height="1000" width="495"/>
  <unicode hex="044F"/>
  <outline>
    <contour>
      <point x="30" y="0" type="line"/>
      <point x="51" y="0" type="line"/>
      <point x="247" y="229" type="line"/>
      <point x="403" y="229" type="line"/>
      <point x="403" y="0" type="line"/>
      <point x="419" y="0" type="line"/>
      <point x="419" y="525" type="line"/>
      <point x="236" y="525" type="line" smooth="yes"/>
      <point x="133" y="525"/>
      <point x="68" y="461"/>
      <point x="68" y="376" type="curve" smooth="yes"/>
      <point x="68" y="287"/>
      <point x="131" y="233"/>
      <point x="227" y="229" type="curve"/>
    </contour>
    <contour>
      <point x="403" y="510" type="line"/>
      <point x="403" y="244" type="line"/>
      <point x="236" y="244" type="line" smooth="yes"/>
      <point x="142" y="244"/>
      <point x="84" y="299"/>
      <point x="84" y="376" type="curve" smooth="yes"/>
      <point x="84" y="452"/>
      <point x="142" y="510"/>
      <point x="236" y="510" type="curve" smooth="yes"/>
    </contour>
  </outline>
</glyph>
<glyph name="djecyrillic" format="2">
  <advance height="1000" width="504"/>
  <unicode hex="0452"/>
  <outline>
    <contour>
      <point x="77" y="0" type="line"/>
      <point x="93" y="0" type="line"/>
      <point x="93" y="418" type="line"/>
      <point x="121" y="477"/>
      <point x="185" y="518"/>
      <point x="255" y="518" type="curve" smooth="yes"/>
      <point x="351" y="518"/>
      <point x="416" y="449"/>
      <point x="416" y="347" type="curve" smooth="yes"/>
      <point x="416" y="-43" type="line" smooth="yes"/>
      <point x="416" y="-126"/>
      <point x="365" y="-181"/>
      <point x="292" y="-181" type="curve" smooth="yes"/>
      <point x="280" y="-181" type="line"/>
      <point x="280" y="-197" type="line"/>
      <point x="292" y="-197" type="line" smooth="yes"/>
      <point x="375" y="-197"/>
      <point x="432" y="-135"/>
      <point x="432" y="-43" type="curve" smooth="yes"/>
      <point x="432" y="347" type="line" smooth="yes"/>
      <point x="432" y="458"/>
      <point x="360" y="533"/>
      <point x="255" y="533" type="curve" smooth="yes"/>
      <point x="188" y="533"/>
      <point x="126" y="498"/>
      <point x="93" y="448" type="curve"/>
      <point x="93" y="740" type="line"/>
      <point x="77" y="740" type="line"/>
    </contour>
    <contour>
      <point x="201" y="606" type="line"/>
      <point x="201" y="621" type="line"/>
      <point x="16" y="621" type="line"/>
      <point x="16" y="606" type="line"/>
    </contour>
  </outline>
</glyph>
<glyph name="icyrillic" format="2">
  <advance height="1000" width="174"/>
  <unicode hex="0456"/>
  <outline>
    <contour>
      <point x="79" y="0" type="line"/>
      <point x="95" y="0" type="line"/>
      <point x="95" y="525" type="line"/>
      <point x="79" y="525" type="line"/>
    </contour>
    <contour>
      <point x="76" y="718" type="line"/>
      <point x="98" y="718" type="line"/>
      <point x="98" y="740" type="line"/>
      <point x="76" y="740" type="line"/>
    </contour>
  </outline>
</glyph>
<glyph name="yicyrillic" format="2">
  <advance height="1000" width="174"/>
  <unicode hex="0457"/>
  <outline>
    <contour>
      <point x="79" y="0" type="line"/>
      <point x="95" y="0" type="line"/>
      <point x="95" y="525" type="line"/>
      <point x="79" y="525" type="line"/>
    </contour>
    <contour>
      <point x="7" y="590" type="line"/>
      <point x="35" y="590" type="line"/>
      <point x="35" y="618" type="line"/>
      <point x="7" y="618" type="line"/>
    </contour>
    <contour>
      <point x="139" y="590" type="line"/>
      <point x="167" y="590" type="line"/>
      <point x="167" y="618" type="line"/>
      <point x="139" y="618" type="line"/>
    </contour>
  </outline>
</glyph>
<glyph name="njecyrillic" format="2">
  <advance height="1000" width="787"/>
  <unicode hex="045A"/>
  <outline>
    <contour>
      <point x="408" y="0" type="line"/>
      <point x="572" y="0" type="line" smooth="yes"/>
      <point x="680" y="0"/>
      <point x="749" y="67"/>
      <point x="749" y="157" type="curve" smooth="yes"/>
      <point x="749" y="251"/>
      <point x="680" y="312"/>
      <point x="572" y="312" type="curve" smooth="yes"/>
      <point x="424" y="312" type="line"/>
      <point x="424" y="525" type="line"/>
      <point x="408" y="525" type="line"/>
      <point x="408" y="275" type="line"/>
      <point x="92" y="275" type="line"/>
      <point x="92" y="525" type="line"/>
      <point x="76" y="525" type="line"/>
      <point x="76" y="0" type="line"/>
      <point x="92" y="0" type="line"/>
      <point x="92" y="260" type="line"/>
      <point x="408" y="260" type="line"/>
    </contour>
    <contour>
      <point x="424" y="15" type="line"/>
      <point x="424" y="297" type="line"/>
      <point x="572" y="297" type="line" smooth="yes"/>
      <point x="672" y="297"/>
      <point x="733" y="239"/>
      <point x="733" y="157" type="curve" smooth="yes"/>
      <point x="733" y="77"/>
      <point x="672" y="15"/>
      <point x="572" y="15" type="curve" smooth="yes"/>
    </contour>
  </outline>
</glyph>
<glyph name="igravecyrillic" format="2">
  <advance height="1000" width="527"/>
  <unicode hex="045D"/>
  <outline>
    <contour>
      <point x="76" y="0" type="line"/>
      <point x="92" y="0" type="line"/>
      <point x="435" y="498" type="line"/>
      <point x="435" y="0" type="line"/>
      <point x="451" y="0" type="line"/>
      <point x="451" y="525" type="line"/>
      <point x="435" y="525" type="line"/>
      <point x="92" y="27" type="line"/>
      <point x="92" y="525" type="line"/>
      <point x="76" y="525" type="line"/>
    </contour>
    <contour>
      <point x="250" y="582" type="line"/>
      <point x="269" y="582" type="line"/>
      <point x="170" y="708" type="line"/>
      <point x="150" y="708" type="line"/>
    </contour>
  </outline>
</glyph>
<glyph name="gheupturncyrillic" format="2">
  <advance height="1000" width="382"/>
  <unicode hex="0491"/>
  <outline>
    <contour>
      <point x="366" y="510" type="line"/>
      <point x="366" y="653" type="line"/>
      <point x="350" y="653" type="line"/>
      <point x="350" y="525" type="line"/>
      <point x="76" y="525" type="line"/>
      <point x="76" y="0" type="line"/>
      <point x="92" y="0" type="line"/>
      <point x="92" y="510" type="line"/>
    </contour>
  </outline>
</glyph>
<glyph name="Zhedescendercyrillic" format="2">
  <advance height="1000" width="935"/>
  <unicode hex="0496"/>
  <outline>
    <contour>
      <point x="443" y="0" type="line"/>
      <point x="459" y="0" type="line"/>
      <point x="459" y="378" type="line"/>
      <point x="547" y="378" type="line"/>
      <point x="837" y="0" type="line"/>
      <point x="858" y="0" type="line"/>
      <point x="561" y="386" type="line"/>
      <point x="842" y="740" type="line"/>
      <point x="822" y="740" type="line"/>
      <point x="547" y="393" type="line"/>
      <point x="459" y="393" type="line"/>
      <point x="459" y="740" type="line"/>
      <point x="443" y="740" type="line"/>
      <point x="443" y="393" type="line"/>
      <point x="355" y="393" type="line"/>
      <point x="80" y="740" type="line"/>
      <point x="60" y="740" type="line"/>
      <point x="341" y="386" type="line"/>
      <point x="44" y="0" type="line"/>
      <point x="65" y="0" type="line"/>
      <point x="355" y="378" type="line"/>
      <point x="443" y="378" type="line"/>
    </contour>
    <contour>
      <point x="837" y="15" type="line"/>
      <point x="837" y="0" type="line"/>
      <point x="913" y="0" type="line"/>
      <point x="913" y="-143" type="line"/>
      <point x="929" y="-143" type="line"/>
      <point x="929" y="15" type="line"/>
    </contour>
  </outline>
</glyph>
<glyph name="zhedescendercyrillic" format="2">
  <advance height="1000" width="705"/>
  <unicode hex="0497"/>
  <outline>
    <contour>
      <point x="24" y="0" type="line"/>
      <point x="45" y="0" type="line"/>
      <point x="262" y="266" type="line"/>
      <point x="332" y="266" type="line"/>
      <point x="332" y="0" type="line"/>
      <point x="348" y="0" type="line"/>
      <point x="348" y="266" type="line"/>
      <point x="418" y="266" type="line"/>
      <point x="635" y="0" type="line"/>
      <point x="656" y="0" type="line"/>
      <point x="432" y="275" type="line"/>
      <point x="642" y="525" type="line"/>
      <point x="622" y="525" type="line"/>
      <point x="418" y="281" type="line"/>
      <point x="348" y="281" type="line"/>
      <point x="348" y="525" type="line"/>
      <point x="332" y="525" type="line"/>
      <point x="332" y="281" type="line"/>
      <point x="262" y="281" type="line"/>
      <point x="58" y="525" type="line"/>
      <point x="38" y="525" type="line"/>
      <point x="248" y="275" type="line"/>
    </contour>
    <contour>
      <point x="635" y="15" type="line"/>
      <point x="635" y="0" type="line"/>
      <point x="685" y="0" type="line"/>
      <point x="685" y="-128" type="line"/>
      <point x="701" y="-128" type="line"/>
      <point x="701" y="15" type="line"/>
    </contour>
  </outline>
</glyph>
<glyph name="kadescendercyrillic" format="2">
  <advance height="1000" width="468"/>
  <unicode hex="049B"/>
  <outline>
    <contour>
      <point x="176" y="275" type="line"/>
      <point x="406" y="525" type="line"/>
      <point x="386" y="525" type="line"/>
      <point x="162" y="281" type="line"/>
      <point x="92" y="281" type="line"/>
      <point x="92" y="525" type="line"/>
      <point x="76" y="525" type="line"/>
      <point x="76" y="0" type="line"/>
      <point x="92" y="0" type="line"/>
      <point x="92" y="266" type="line"/>
      <point x="162" y="266" type="line"/>
      <point x="399" y="0" type="line"/>
      <point x="420" y="0" type="line"/>
    </contour>
    <contour>
      <point x="399" y="15" type="line"/>
      <point x="399" y="0" type="line"/>
      <point x="448" y="0" type="line"/>
      <point x="448" y="-128" type="line"/>
      <point x="464" y="-128" type="line"/>
      <point x="464" y="15" type="line"/>
    </contour>
  </outline>
</glyph>
<glyph name="Ustraightstrokecyrillic" format="2">
  <advance height="1000" width="589"/>
  <unicode hex="04B0"/>
  <outline>
    <contour>
      <point x="286" y="0" type="line"/>
      <point x="302" y="0" type="line"/>
      <point x="302" y="346" type="line"/>
      <point x="569" y="740" type="line"/>
      <point x="549" y="740" type="line"/>
      <point x="295" y="363" type="line"/>
      <point x="40" y="740" type="line"/>
      <point x="20" y="740" type="line"/>
      <point x="286" y="348" type="line"/>
    </contour>
    <contour>
      <point x="101" y="226" type="line"/>
      <point x="487" y="226" type="line"/>
      <point x="487" y="241" type="line"/>
      <point x="101" y="241" type="line"/>
    </contour>
  </outline>
</glyph>
<glyph name="hadescendercyrillic" format="2">
  <advance height="1000" width="485"/>
  <unicode hex="04B3"/>
  <outline>
    <contour>
      <point x="32" y="0" type="line"/>
      <point x="52" y="0" type="line"/>
      <point x="233" y="260" type="line"/>
      <point x="412" y="0" type="line"/>
      <point x="433" y="0" type="line"/>
      <point x="242" y="274" type="line"/>
      <point x="416" y="525" type="line"/>
      <point x="396" y="525" type="line"/>
      <point x="234" y="285" type="line"/>
      <point x="72" y="525" type="line"/>
      <point x="51" y="525" type="line"/>
      <point x="224" y="273" type="line"/>
    </contour>
    <contour>
      <point x="412" y="15" type="line"/>
      <point x="412" y="0" type="line"/>
      <point x="465" y="0" type="line"/>
      <point x="465" y="-128" type="line"/>
      <point x="481" y="-128" type="line"/>
      <point x="481" y="15" type="line"/>
    </contour>
  </outline>
</glyph>
<glyph name="chedescendercyrillic" format="2">
  <advance height="1000" width="529"/>
  <unicode hex="04B7"/>
  <outline>
    <contour>
      <point x="407" y="15" type="line"/>
      <point x="407" y="525" type="line"/>
      <point x="391" y="525" type="line"/>
      <point x="391" y="259" type="line"/>
      <point x="355" y="221"/>
      <point x="300" y="198"/>
      <point x="222" y="198" type="curve" smooth="yes"/>
      <point x="116" y="198"/>
      <point x="68" y="236"/>
      <point x="68" y="340" type="curve" smooth="yes"/>
      <point x="68" y="525" type="line"/>
      <point x="52" y="525" type="line"/>
      <point x="52" y="340" type="line" smooth="yes"/>
      <point x="52" y="224"/>
      <point x="106" y="182"/>
      <point x="222" y="182" type="curve" smooth="yes"/>
      <point x="302" y="182"/>
      <point x="359" y="206"/>
      <point x="391" y="240" type="curve"/>
      <point x="391" y="0" type="line"/>
      <point x="481" y="0" type="line"/>
      <point x="481" y="-128" type="line"/>
      <point x="497" y="-128" type="line"/>
      <point x="497" y="15" type="line"/>
    </contour>
  </outline>
</glyph>
<glyph name="emdash" format="2">
  <advance height="1000" width="1000"/>
  <unicode hex="2014"/>
  <outline>
    <contour>
      <point x="48" y="211" type="line"/>
      <point x="952" y="211" type="line"/>
      <point x="952" y="226" type="line"/>
      <point x="48" y="226" type="line"/>
    </contour>
  </outline>
</glyph>
<glyph name="quoteleft" format="2">
  <advance height="1000" width="149"/>
  <unicode hex="2018"/>
  <outline>
    <contour>
      <point x="60" y="560" type="line"/>
      <point x="76" y="560" type="line"/>
      <point x="76" y="623" type="line" smooth="yes"/>
      <point x="76" y="675"/>
      <point x="85" y="713"/>
      <point x="113" y="750" type="curve"/>
      <point x="101" y="759" type="line"/>
      <point x="71" y="722"/>
      <point x="60" y="684"/>
      <point x="60" y="623" type="curve" smooth="yes"/>
    </contour>
  </outline>
</glyph>
<glyph name="quoteright" format="2">
  <advance height="1000" width="149"/>
  <unicode hex="2019"/>
  <outline>
    <contour>
      <point x="48" y="546" type="line"/>
      <point x="78" y="583"/>
      <point x="89" y="621"/>
      <point x="89" y="682" type="curve" smooth="yes"/>
      <point x="89" y="745" type="line"/>
      <point x="73" y="745" type="line"/>
      <point x="73" y="682" type="line" smooth="yes"/>
      <point x="73" y="630"/>
      <point x="64" y="592"/>
      <point x="36" y="555" type="curve"/>
    </contour>
  </outline>
</glyph>
<glyph name="quotedblleft" format="2">
  <advance height="1000" width="239"/>
  <unicode hex="201C"/>
  <outline>
    <contour>
      <point x="36" y="562" type="line"/>
      <point x="52" y="562" type="line"/>
      <point x="52" y="625" type="line" smooth="yes"/>
      <point x="52" y="677"/>
      <point x="61" y="715"/>
      <point x="89" y="752" type="curve"/>
      <point x="77" y="761" type="line"/>
      <point x="47" y="724"/>
      <point x="36" y="686"/>
      <point x="36" y="625" type="curve" smooth="yes"/>
    </contour>
    <contour>
      <point x="126" y="562" type="line"/>
      <point x="142" y="562" type="line"/>
      <point x="142" y="625" type="line" smooth="yes"/>
      <point x="142" y="677"/>
      <point x="151" y="715"/>
      <point x="179" y="752" type="curve"/>
      <point x="167" y="761" type="line"/>
      <point x="137" y="724"/>
      <point x="126" y="686"/>
      <point x="126" y="625" type="curve" smooth="yes"/>
    </contour>
  </outline>
</glyph>
<glyph name="quotedblright" format="2">
  <advance height="1000" width="239"/>
  <unicode hex="201D"/>
  <outline>
    <contour>
      <point x="48" y="546" type="line"/>
      <point x="78" y="583"/>
      <point x="89" y="621"/>
      <point x="89" y="682" type="curve" smooth="yes"/>
      <point x="89" y="745" type="line"/>
      <point x="73" y="745" type="line"/>
      <point x="73" y="682" type="line" smooth="yes"/>
      <point x="73" y="630"/>
      <point x="64" y="592"/>
      <point x="36" y="555" type="curve"/>
    </contour>
    <contour>
      <point x="138" y="546" type="line"/>
      <point x="168" y="583"/>
      <point x="179" y="621"/>
      <point x="179" y="682" type="curve" smooth="yes"/>
      <point x="179" y="745" type="line"/>
      <point x="163" y="745" type="line"/>
      <point x="163" y="682" type="line" smooth="yes"/>
      <point x="163" y="630"/>
      <point x="154" y="592"/>
      <point x="126" y="555" type="curve"/>
    </contour>
  </outline>
</glyph>
<glyph name="uni2461" format="2">
  <advance height="1000" width="1000"/>
  <unicode hex="2461"/>
  <guideline x="-83" y="574" angle="0" identifier="BzemdOOKUc"/>
  <outline>
    <contour>
      <point x="339.0" y="96.0" type="line"/>
      <point x="659.0" y="96.0" type="line"/>
      <point x="659.0" y="112" type="line"/>
      <point x="365.0" y="112" type="line"/>
      <point x="612" y="341"/>
      <point x="653.0" y="410"/>
      <point x="653.0" y="489" type="curve" smooth="yes"/>
      <point x="653.0" y="585"/>
      <point x="581.0" y="637"/>
      <point x="489.0" y="637" type="curve" smooth="yes"/>
      <point x="438.0" y="637"/>
      <point x="382.0" y="620"/>
      <point x="341.0" y="594" type="curve"/>
      <point x="341.0" y="575" type="line"/>
      <point x="386.0" y="606"/>
      <point x="442.0" y="622"/>
      <point x="489.0" y="622" type="curve" smooth="yes"/>
      <point x="573.0" y="622"/>
      <point x="637.0" y="578"/>
      <point x="637.0" y="489" type="curve" smooth="yes"/>
      <point x="637.0" y="415"/>
      <point x="596" y="350"/>
      <point x="339.0" y="107" type="curve"/>
    </contour>
    <contour>
      <point x="980" y="350" type="curve" smooth="yes"/>
      <point x="980" y="638"/>
      <point x="759" y="830"/>
      <point x="500" y="830" type="curve" smooth="yes"/>
      <point x="241" y="830"/>
      <point x="20" y="638"/>
      <point x="20" y="350" type="curve" smooth="yes"/>
      <point x="20" y="62"/>
      <point x="241" y="-130"/>
      <point x="500" y="-130" type="curve" smooth="yes"/>
      <point x="759" y="-130"/>
      <point x="980" y="62"/>
    </contour>
    <contour>
      <point x="964" y="350" type="curve" smooth="yes"/>
      <point x="964" y="99"/>
      <point x="778" y="-114"/>
      <point x="500" y="-114" type="curve" smooth="yes"/>
      <point x="222" y="-114"/>
      <point x="36" y="99"/>
      <point x="36" y="350" type="curve" smooth="yes"/>
      <point x="36" y="601"/>
      <point x="222" y="814"/>
      <point x="500" y="814" type="curve" smooth="yes"/>
      <point x="778" y="814"/>
      <point x="964" y="601"/>
    </contour>
  </outline>
</glyph>
<glyph name="uni2462" format="2">
  <advance height="1000" width="1000"/>
  <unicode hex="2462"/>
  <outline>
    <contour>
      <point x="495.0" y="88" type="curve" smooth="yes"/>
      <point x="589.0" y="88"/>
      <point x="655.0" y="143"/>
      <point x="655.0" y="232" type="curve" smooth="yes"/>
      <point x="655.0" y="305"/>
      <point x="602.0" y="361"/>
      <point x="525.0" y="374" type="curve"/>
      <point x="596.0" y="383"/>
      <point x="648.0" y="437"/>
      <point x="648.0" y="507" type="curve" smooth="yes"/>
      <point x="648.0" y="589"/>
      <point x="587.0" y="637"/>
      <point x="501.0" y="637" type="curve" smooth="yes"/>
      <point x="452.0" y="637"/>
      <point x="396.0" y="620"/>
      <point x="361.0" y="591" type="curve"/>
      <point x="361.0" y="573" type="line"/>
      <point x="402.0" y="607"/>
      <point x="452.0" y="622"/>
      <point x="501.0" y="622" type="curve" smooth="yes"/>
      <point x="578.0" y="622"/>
      <point x="632.0" y="581"/>
      <point x="632.0" y="507" type="curve" smooth="yes"/>
      <point x="632.0" y="428"/>
      <point x="569.0" y="381"/>
      <point x="472.0" y="381" type="curve" smooth="yes"/>
      <point x="449.0" y="381" type="line"/>
      <point x="449.0" y="366" type="line"/>
      <point x="472.0" y="366" type="line" smooth="yes"/>
      <point x="572.0" y="366"/>
      <point x="639.0" y="313"/>
      <point x="639.0" y="232" type="curve" smooth="yes"/>
      <point x="639.0" y="151"/>
      <point x="582.0" y="103"/>
      <point x="495.0" y="103" type="curve" smooth="yes"/>
      <point x="442.0" y="103"/>
      <point x="383.0" y="124"/>
      <point x="337.0" y="164" type="curve"/>
      <point x="337.0" y="145" type="line"/>
      <point x="378.0" y="110"/>
      <point x="439.0" y="88"/>
    </contour>
    <contour>
      <point x="980" y="350" type="curve" smooth="yes"/>
      <point x="980" y="638"/>
      <point x="759" y="830"/>
      <point x="500" y="830" type="curve" smooth="yes"/>
      <point x="241" y="830"/>
      <point x="20" y="638"/>
      <point x="20" y="350" type="curve" smooth="yes"/>
      <point x="20" y="62"/>
      <point x="241" y="-130"/>
      <point x="500" y="-130" type="curve" smooth="yes"/>
      <point x="759" y="-130"/>
      <point x="980" y="62"/>
    </contour>
    <contour>
      <point x="964" y="350" type="curve" smooth="yes"/>
      <point x="964" y="99"/>
      <point x="778" y="-114"/>
      <point x="500" y="-114" type="curve" smooth="yes"/>
      <point x="222" y="-114"/>
      <point x="36" y="99"/>
      <point x="36" y="350" type="curve" smooth="yes"/>
      <point x="36" y="601"/>
      <point x="222" y="814"/>
      <point x="500" y="814" type="curve" smooth="yes"/>
      <point x="778" y="814"/>
      <point x="964" y="601"/>
    </contour>
  </outline>
</glyph>
<glyph name="uni2463" format="2">
  <advance height="1000" width="1000"/>
  <unicode hex="2463"/>
  <outline>
    <contour>
      <point x="536" y="96.0" type="line"/>
      <point x="552" y="96.0" type="line"/>
      <point x="552" y="249" type="line"/>
      <point x="632" y="249" type="line"/>
      <point x="632" y="264" type="line"/>
      <point x="552" y="264" type="line"/>
      <point x="552" y="637" type="line"/>
      <point x="536" y="637" type="line"/>
      <point x="274" y="259" type="line"/>
      <point x="274" y="249" type="line"/>
      <point x="536" y="249" type="line"/>
    </contour>
    <contour>
      <point x="536" y="264" type="line"/>
      <point x="296" y="264" type="line"/>
      <point x="536" y="610" type="line"/>
    </contour>
    <contour>
      <point x="980" y="350" type="curve" smooth="yes"/>
      <point x="980" y="638"/>
      <point x="759" y="830"/>
      <point x="500" y="830" type="curve" smooth="yes"/>
      <point x="241" y="830"/>
      <point x="20" y="638"/>
      <point x="20" y="350" type="curve" smooth="yes"/>
      <point x="20" y="62"/>
      <point x="241" y="-130"/>
      <point x="500" y="-130" type="curve" smooth="yes"/>
      <point x="759" y="-130"/>
      <point x="980" y="62"/>
    </contour>
    <contour>
      <point x="964" y="350" type="curve" smooth="yes"/>
      <point x="964" y="99"/>
      <point x="778" y="-114"/>
      <point x="500" y="-114" type="curve" smooth="yes"/>
      <point x="222" y="-114"/>
      <point x="36" y="99"/>
      <point x="36" y="350" type="curve" smooth="yes"/>
      <point x="36" y="601"/>
      <point x="222" y="814"/>
      <point x="500" y="814" type="curve" smooth="yes"/>
      <point x="778" y="814"/>
      <point x="964" y="601"/>
    </contour>
  </outline>
</glyph>
<glyph name="uni2474" format="2">
  <advance height="1000" width="1000"/>
  <unicode hex="2474"/>
  <outline>
    <contour>
      <point x="356" y="0" type="line"/>
      <point x="676" y="0" type="line"/>
      <point x="676" y="16" type="line"/>
      <point x="524" y="16" type="line"/>
      <point x="524" y="541" type="line"/>
      <point x="335" y="496" type="line"/>
      <point x="335" y="480" type="line"/>
      <point x="508" y="522" type="line"/>
      <point x="508" y="16" type="line"/>
      <point x="356" y="16" type="line"/>
    </contour>
    <contour>
      <point x="225" y="-189" type="curve"/>
      <point x="245" y="-189" type="line"/>
      <point x="118" y="-49"/>
      <point x="48" y="106"/>
      <point x="48" y="276" type="curve" smooth="yes"/>
      <point x="48" y="444"/>
      <point x="117" y="600"/>
      <point x="244" y="740" type="curve"/>
      <point x="225" y="740" type="line"/>
      <point x="99" y="600"/>
      <point x="32" y="445"/>
      <point x="32" y="276" type="curve" smooth="yes"/>
      <point x="32" y="107"/>
      <point x="99" y="-49"/>
    </contour>
    <contour>
      <point x="759" y="-189" type="curve"/>
      <point x="778" y="-189" type="line"/>
      <point x="904" y="-49"/>
      <point x="968" y="107"/>
      <point x="968" y="276" type="curve" smooth="yes"/>
      <point x="968" y="445"/>
      <point x="905" y="600"/>
      <point x="779" y="740" type="curve"/>
      <point x="759" y="740" type="line"/>
      <point x="886" y="600"/>
      <point x="952" y="446"/>
      <point x="952" y="276" type="curve" smooth="yes"/>
      <point x="952" y="108"/>
      <point x="886" y="-49"/>
    </contour>
  </outline>
</glyph>
<glyph name="uni2476" format="2">
  <advance height="1000" width="1000"/>
  <unicode hex="2476"/>
  <outline>
    <contour>
      <point x="495" y="-8" type="curve" smooth="yes"/>
      <point x="589" y="-8"/>
      <point x="655" y="47"/>
      <point x="655" y="136" type="curve" smooth="yes"/>
      <point x="655" y="209"/>
      <point x="602" y="265"/>
      <point x="525" y="278" type="curve"/>
      <point x="596" y="287"/>
      <point x="648" y="341"/>
      <point x="648" y="411" type="curve" smooth="yes"/>
      <point x="648" y="493"/>
      <point x="587" y="541"/>
      <point x="501" y="541" type="curve" smooth="yes"/>
      <point x="452" y="541"/>
      <point x="396" y="524"/>
      <point x="361" y="495" type="curve"/>
      <point x="361" y="477" type="line"/>
      <point x="402" y="511"/>
      <point x="452" y="526"/>
      <point x="501" y="526" type="curve" smooth="yes"/>
      <point x="578" y="526"/>
      <point x="632" y="485"/>
      <point x="632" y="411" type="curve" smooth="yes"/>
      <point x="632" y="332"/>
      <point x="569" y="285"/>
      <point x="472" y="285" type="curve" smooth="yes"/>
      <point x="449" y="285" type="line"/>
      <point x="449" y="270" type="line"/>
      <point x="472" y="270" type="line" smooth="yes"/>
      <point x="572" y="270"/>
      <point x="639" y="217"/>
      <point x="639" y="136" type="curve" smooth="yes"/>
      <point x="639" y="55"/>
      <point x="582" y="7"/>
      <point x="495" y="7" type="curve" smooth="yes"/>
      <point x="442" y="7"/>
      <point x="383" y="28"/>
      <point x="337" y="68" type="curve"/>
      <point x="337" y="49" type="line"/>
      <point x="378" y="14"/>
      <point x="439" y="-8"/>
    </contour>
    <contour>
      <point x="225" y="-189" type="curve"/>
      <point x="245" y="-189" type="line"/>
      <point x="118" y="-49"/>
      <point x="48" y="106"/>
      <point x="48" y="276" type="curve" smooth="yes"/>
      <point x="48" y="444"/>
      <point x="117" y="600"/>
      <point x="244" y="740" type="curve"/>
      <point x="225" y="740" type="line"/>
      <point x="99" y="600"/>
      <point x="32" y="445"/>
      <point x="32" y="276" type="curve" smooth="yes"/>
      <point x="32" y="107"/>
      <point x="99" y="-49"/>
    </contour>
    <contour>
      <point x="759" y="-189" type="curve"/>
      <point x="778" y="-189" type="line"/>
      <point x="904" y="-49"/>
      <point x="968" y="107"/>
      <point x="968" y="276" type="curve" smooth="yes"/>
      <point x="968" y="445"/>
      <point x="905" y="600"/>
      <point x="779" y="740" type="curve"/>
      <point x="759" y="740" type="line"/>
      <point x="886" y="600"/>
      <point x="952" y="446"/>
      <point x="952" y="276" type="curve" smooth="yes"/>
      <point x="952" y="108"/>
      <point x="886" y="-49"/>
    </contour>
  </outline>
</glyph>
<glyph name="uni2477" format="2">
  <advance height="1000" width="1000"/>
  <unicode hex="2477"/>
  <outline>
    <contour>
      <point x="558" y="0" type="line"/>
      <point x="574" y="0" type="line"/>
      <point x="574" y="153" type="line"/>
      <point x="654" y="153" type="line"/>
      <point x="654" y="168" type="line"/>
      <point x="574" y="168" type="line"/>
      <point x="574" y="541" type="line"/>
      <point x="558" y="541" type="line"/>
      <point x="296" y="163" type="line"/>
      <point x="296" y="153" type="line"/>
      <point x="558" y="153" type="line"/>
    </contour>
    <contour>
      <point x="558" y="168" type="line"/>
      <point x="318" y="168" type="line"/>
      <point x="558" y="514" type="line"/>
    </contour>
    <contour>
      <point x="225" y="-189" type="curve"/>
      <point x="245" y="-189" type="line"/>
      <point x="118" y="-49"/>
      <point x="48" y="106"/>
      <point x="48" y="276" type="curve" smooth="yes"/>
      <point x="48" y="444"/>
      <point x="117" y="600"/>
      <point x="244" y="740" type="curve"/>
      <point x="225" y="740" type="line"/>
      <point x="99" y="600"/>
      <point x="32" y="445"/>
      <point x="32" y="276" type="curve" smooth="yes"/>
      <point x="32" y="107"/>
      <point x="99" y="-49"/>
    </contour>
    <contour>
      <point x="759" y="-189" type="curve"/>
      <point x="778" y="-189" type="line"/>
      <point x="904" y="-49"/>
      <point x="968" y="107"/>
      <point x="968" y="276" type="curve" smooth="yes"/>
      <point x="968" y="445"/>
      <point x="905" y="600"/>
      <point x="779" y="740" type="curve"/>
      <point x="759" y="740" type="line"/>
      <point x="886" y="600"/>
      <point x="952" y="446"/>
      <point x="952" y="276" type="curve" smooth="yes"/>
      <point x="952" y="108"/>
      <point x="886" y="-49"/>
    </contour>
  </outline>
</glyph>
<glyph name="uni2478" format="2">
  <advance height="1000" width="1000"/>
  <unicode hex="2478"/>
  <outline>
    <contour>
      <point x="486" y="-8" type="curve" smooth="yes"/>
      <point x="587" y="-8"/>
      <point x="651" y="58"/>
      <point x="651" y="155" type="curve" smooth="yes"/>
      <point x="651" y="250"/>
      <point x="588" y="314"/>
      <point x="466" y="314" type="curve" smooth="yes"/>
      <point x="436" y="314"/>
      <point x="402" y="311"/>
      <point x="380" y="307" type="curve"/>
      <point x="398" y="517" type="line"/>
      <point x="630" y="517" type="line"/>
      <point x="629" y="533" type="line"/>
      <point x="384" y="533" type="line"/>
      <point x="362" y="290" type="line"/>
      <point x="402" y="297"/>
      <point x="429" y="299"/>
      <point x="466" y="299" type="curve" smooth="yes"/>
      <point x="575" y="299"/>
      <point x="635" y="243"/>
      <point x="635" y="155" type="curve" smooth="yes"/>
      <point x="635" y="63"/>
      <point x="580" y="7"/>
      <point x="486" y="7" type="curve" smooth="yes"/>
      <point x="436" y="7"/>
      <point x="384" y="30"/>
      <point x="344" y="68" type="curve"/>
      <point x="344" y="47" type="line"/>
      <point x="381" y="14"/>
      <point x="429" y="-8"/>
    </contour>
    <contour>
      <point x="225" y="-189" type="curve"/>
      <point x="245" y="-189" type="line"/>
      <point x="118" y="-49"/>
      <point x="48" y="106"/>
      <point x="48" y="276" type="curve" smooth="yes"/>
      <point x="48" y="444"/>
      <point x="117" y="600"/>
      <point x="244" y="740" type="curve"/>
      <point x="225" y="740" type="line"/>
      <point x="99" y="600"/>
      <point x="32" y="445"/>
      <point x="32" y="276" type="curve" smooth="yes"/>
      <point x="32" y="107"/>
      <point x="99" y="-49"/>
    </contour>
    <contour>
      <point x="759" y="-189" type="curve"/>
      <point x="778" y="-189" type="line"/>
      <point x="904" y="-49"/>
      <point x="968" y="107"/>
      <point x="968" y="276" type="curve" smooth="yes"/>
      <point x="968" y="445"/>
      <point x="905" y="600"/>
      <point x="779" y="740" type="curve"/>
      <point x="759" y="740" type="line"/>
      <point x="886" y="600"/>
      <point x="952" y="446"/>
      <point x="952" y="276" type="curve" smooth="yes"/>
      <point x="952" y="108"/>
      <point x="886" y="-49"/>
    </contour>
  </outline>
</glyph>
<glyph name="uni2488" format="2">
  <advance height="1000" width="1000"/>
  <unicode hex="2488"/>
  <outline>
    <contour>
      <point x="310" y="0" type="line"/>
      <point x="686" y="0" type="line"/>
      <point x="686" y="16" type="line"/>
      <point x="506" y="16" type="line"/>
      <point x="506" y="757" type="line"/>
      <point x="293" y="720" type="line"/>
      <point x="293" y="704" type="line"/>
      <point x="490" y="738" type="line"/>
      <point x="490" y="16" type="line"/>
      <point x="310" y="16" type="line"/>
    </contour>
    <contour>
      <point x="849" y="0" type="line"/>
      <point x="880" y="0" type="line"/>
      <point x="880" y="31" type="line"/>
      <point x="849" y="31" type="line"/>
    </contour>
  </outline>
</glyph>
<glyph name="uni2489" format="2">
  <advance height="1000" width="1000"/>
  <unicode hex="2489"/>
  <outline>
    <contour>
      <point x="294" y="0" type="line"/>
      <point x="728" y="0" type="line"/>
      <point x="728" y="16" type="line"/>
      <point x="320" y="16" type="line"/>
      <point x="460" y="151" type="line" smooth="yes"/>
      <point x="658" y="342"/>
      <point x="715" y="425"/>
      <point x="715" y="531" type="curve" smooth="yes"/>
      <point x="715" y="664"/>
      <point x="630" y="748"/>
      <point x="506" y="748" type="curve" smooth="yes"/>
      <point x="437" y="748"/>
      <point x="360" y="721"/>
      <point x="306" y="682" type="curve"/>
      <point x="306" y="662" type="line"/>
      <point x="366" y="707"/>
      <point x="441" y="733"/>
      <point x="506" y="733" type="curve" smooth="yes"/>
      <point x="620" y="733"/>
      <point x="699" y="654"/>
      <point x="699" y="531" type="curve" smooth="yes"/>
      <point x="699" y="429"/>
      <point x="642" y="347"/>
      <point x="449" y="162" type="curve"/>
      <point x="294" y="15" type="line"/>
    </contour>
    <contour>
      <point x="849" y="0" type="line"/>
      <point x="880" y="0" type="line"/>
      <point x="880" y="31" type="line"/>
      <point x="849" y="31" type="line"/>
    </contour>
  </outline>
</glyph>
<glyph name="uni249C" format="2">
  <advance height="1000" width="1000"/>
  <unicode hex="249C"/>
  <outline>
    <contour>
      <point x="476" y="-8" type="curve" smooth="yes"/>
      <point x="543" y="-8"/>
      <point x="596" y="18"/>
      <point x="632" y="68" type="curve"/>
      <point x="635" y="0" type="line"/>
      <point x="648" y="0" type="line"/>
      <point x="648" y="369" type="line" smooth="yes"/>
      <point x="648" y="470"/>
      <point x="588" y="533"/>
      <point x="493" y="533" type="curve" smooth="yes"/>
      <point x="442" y="533"/>
      <point x="387" y="517"/>
      <point x="337" y="480" type="curve"/>
      <point x="337" y="461" type="line"/>
      <point x="380" y="498"/>
      <point x="445" y="518"/>
      <point x="493" y="518" type="curve" smooth="yes"/>
      <point x="577" y="518"/>
      <point x="632" y="459"/>
      <point x="632" y="369" type="curve" smooth="yes"/>
      <point x="632" y="308" type="line"/>
      <point x="489" y="292" type="line" smooth="yes"/>
      <point x="386" y="280"/>
      <point x="318" y="219"/>
      <point x="318" y="137" type="curve" smooth="yes"/>
      <point x="318" y="49"/>
      <point x="383" y="-8"/>
    </contour>
    <contour>
      <point x="476" y="7" type="curve" smooth="yes"/>
      <point x="393" y="7"/>
      <point x="334" y="58"/>
      <point x="334" y="137" type="curve" smooth="yes"/>
      <point x="334" y="211"/>
      <point x="396" y="265"/>
      <point x="491" y="276" type="curve" smooth="yes"/>
      <point x="632" y="293" type="line"/>
      <point x="632" y="92" type="line"/>
      <point x="596" y="36"/>
      <point x="542" y="7"/>
    </contour>
    <contour>
      <point x="225" y="-189" type="curve"/>
      <point x="245" y="-189" type="line"/>
      <point x="118" y="-49"/>
      <point x="48" y="106"/>
      <point x="48" y="276" type="curve" smooth="yes"/>
      <point x="48" y="444"/>
      <point x="117" y="600"/>
      <point x="244" y="740" type="curve"/>
      <point x="225" y="740" type="line"/>
      <point x="99" y="600"/>
      <point x="32" y="445"/>
      <point x="32" y="276" type="curve" smooth="yes"/>
      <point x="32" y="107"/>
      <point x="99" y="-49"/>
    </contour>
    <contour>
      <point x="759" y="-189" type="curve"/>
      <point x="778" y="-189" type="line"/>
      <point x="904" y="-49"/>
      <point x="968" y="107"/>
      <point x="968" y="276" type="curve" smooth="yes"/>
      <point x="968" y="445"/>
      <point x="905" y="600"/>
      <point x="779" y="740" type="curve"/>
      <point x="759" y="740" type="line"/>
      <point x="886" y="600"/>
      <point x="952" y="446"/>
      <point x="952" y="276" type="curve" smooth="yes"/>
      <point x="952" y="108"/>
      <point x="886" y="-49"/>
    </contour>
  </outline>
</glyph>
<glyph name="uni249D" format="2">
  <advance height="1000" width="1000"/>
  <unicode hex="249D"/>
  <outline>
    <contour>
      <point x="504" y="-8" type="curve" smooth="yes"/>
      <point x="653" y="-8"/>
      <point x="752" y="101"/>
      <point x="752" y="266" type="curve" smooth="yes"/>
      <point x="752" y="427"/>
      <point x="662" y="533"/>
      <point x="522" y="533" type="curve" smooth="yes"/>
      <point x="462" y="533"/>
      <point x="406" y="512"/>
      <point x="358" y="472" type="curve"/>
      <point x="358" y="740" type="line"/>
      <point x="342" y="740" type="line"/>
      <point x="342" y="22" type="line"/>
      <point x="389" y="3"/>
      <point x="452" y="-8"/>
    </contour>
    <contour>
      <point x="504" y="7" type="curve" smooth="yes"/>
      <point x="461" y="7"/>
      <point x="402" y="17"/>
      <point x="358" y="32" type="curve"/>
      <point x="358" y="452" type="line"/>
      <point x="404" y="494"/>
      <point x="462" y="518"/>
      <point x="522" y="518" type="curve" smooth="yes"/>
      <point x="653" y="518"/>
      <point x="736" y="416"/>
      <point x="736" y="266" type="curve" smooth="yes"/>
      <point x="736" y="112"/>
      <point x="644" y="7"/>
    </contour>
    <contour>
      <point x="225" y="-189" type="curve"/>
      <point x="245" y="-189" type="line"/>
      <point x="118" y="-49"/>
      <point x="48" y="106"/>
      <point x="48" y="276" type="curve" smooth="yes"/>
      <point x="48" y="444"/>
      <point x="117" y="600"/>
      <point x="244" y="740" type="curve"/>
      <point x="225" y="740" type="line"/>
      <point x="99" y="600"/>
      <point x="32" y="445"/>
      <point x="32" y="276" type="curve" smooth="yes"/>
      <point x="32" y="107"/>
      <point x="99" y="-49"/>
    </contour>
    <contour>
      <point x="759" y="-189" type="curve"/>
      <point x="778" y="-189" type="line"/>
      <point x="904" y="-49"/>
      <point x="968" y="107"/>
      <point x="968" y="276" type="curve" smooth="yes"/>
      <point x="968" y="445"/>
      <point x="905" y="600"/>
      <point x="779" y="740" type="curve"/>
      <point x="759" y="740" type="line"/>
      <point x="886" y="600"/>
      <point x="952" y="446"/>
      <point x="952" y="276" type="curve" smooth="yes"/>
      <point x="952" y="108"/>
      <point x="886" y="-49"/>
    </contour>
  </outline>
</glyph>
<glyph name="uni24B6" format="2">
  <advance height="1000" width="1000"/>
  <unicode hex="24B6"/>
  <outline>
    <contour>
      <point x="722" y="100" type="line"/>
      <point x="739" y="100" type="line"/>
      <point x="507" y="627" type="line"/>
      <point x="501" y="627" type="line"/>
      <point x="269" y="100" type="line"/>
      <point x="285" y="100" type="line"/>
      <point x="503" y="598" type="line"/>
    </contour>
    <contour>
      <point x="368" y="305" type="line"/>
      <point x="637" y="305" type="line"/>
      <point x="637" y="320" type="line"/>
      <point x="368" y="320" type="line"/>
    </contour>
    <contour>
      <point x="980" y="350" type="curve" smooth="yes"/>
      <point x="980" y="638"/>
      <point x="759" y="830"/>
      <point x="500" y="830" type="curve" smooth="yes"/>
      <point x="241" y="830"/>
      <point x="20" y="638"/>
      <point x="20" y="350" type="curve" smooth="yes"/>
      <point x="20" y="62"/>
      <point x="241" y="-130"/>
      <point x="500" y="-130" type="curve" smooth="yes"/>
      <point x="759" y="-130"/>
      <point x="980" y="62"/>
    </contour>
    <contour>
      <point x="964" y="350" type="curve" smooth="yes"/>
      <point x="964" y="99"/>
      <point x="778" y="-114"/>
      <point x="500" y="-114" type="curve" smooth="yes"/>
      <point x="222" y="-114"/>
      <point x="36" y="99"/>
      <point x="36" y="350" type="curve" smooth="yes"/>
      <point x="36" y="601"/>
      <point x="222" y="814"/>
      <point x="500" y="814" type="curve" smooth="yes"/>
      <point x="778" y="814"/>
      <point x="964" y="601"/>
    </contour>
  </outline>
</glyph>
<glyph name="uni2777" format="2">
  <advance height="1000" width="1000"/>
  <unicode hex="2777"/>
  <guideline x="0" y="96" angle="0" name="circledNosBaseline" identifier="NrYmGlRoXv"/>
  <outline>
    <contour>
      <point x="359.0" y="96.0" type="line"/>
      <point x="359.0" y="107" type="line"/>
      <point x="616" y="350"/>
      <point x="657.0" y="409"/>
      <point x="657.0" y="483" type="curve" smooth="yes"/>
      <point x="657.0" y="572"/>
      <point x="593.0" y="622"/>
      <point x="509.0" y="622" type="curve" smooth="yes"/>
      <point x="462.0" y="622"/>
      <point x="406.0" y="606"/>
      <point x="361.0" y="575" type="curve"/>
      <point x="361.0" y="594" type="line"/>
      <point x="402.0" y="620"/>
      <point x="458.0" y="637"/>
      <point x="509.0" y="637" type="curve" smooth="yes"/>
      <point x="601.0" y="637"/>
      <point x="673.0" y="579"/>
      <point x="673.0" y="483" type="curve" smooth="yes"/>
      <point x="673.0" y="404"/>
      <point x="632" y="341"/>
      <point x="385.0" y="112" type="curve"/>
      <point x="679.0" y="112" type="line"/>
      <point x="679.0" y="96.0" type="line"/>
    </contour>
    <contour>
      <point x="988" y="360" type="curve" smooth="yes"/>
      <point x="988" y="653"/>
      <point x="764" y="848"/>
      <point x="500" y="848" type="curve" smooth="yes"/>
      <point x="236" y="848"/>
      <point x="12" y="653"/>
      <point x="12" y="360" type="curve" smooth="yes"/>
      <point x="12" y="67"/>
      <point x="236" y="-128"/>
      <point x="500" y="-128" type="curve" smooth="yes"/>
      <point x="764" y="-128"/>
      <point x="988" y="67"/>
    </contour>
  </outline>
</glyph>
<glyph name="uni2779" format="2">
  <advance height="1000" width="1000"/>
  <unicode hex="2779"/>
  <guideline x="0" y="96" angle="0" name="circledNosBaseline" identifier="IBhxjjBsH5"/>
  <outline>
    <contour>
      <point x="563" y="96.0" type="line"/>
      <point x="563" y="249" type="line"/>
      <point x="301" y="249" type="line"/>
      <point x="301" y="259" type="line"/>
      <point x="563" y="637" type="line"/>
      <point x="579" y="637" type="line"/>
      <point x="579" y="264" type="line"/>
      <point x="659" y="264" type="line"/>
      <point x="659" y="249" type="line"/>
      <point x="579" y="249" type="line"/>
      <point x="579" y="96.0" type="line"/>
    </contour>
    <contour>
      <point x="563" y="264" type="line"/>
      <point x="563" y="610" type="line"/>
      <point x="323" y="264" type="line"/>
    </contour>
    <contour>
      <point x="988" y="360" type="curve" smooth="yes"/>
      <point x="988" y="653"/>
      <point x="764" y="848"/>
      <point x="500" y="848" type="curve" smooth="yes"/>
      <point x="236" y="848"/>
      <point x="12" y="653"/>
      <point x="12" y="360" type="curve" smooth="yes"/>
      <point x="12" y="67"/>
      <point x="236" y="-128"/>
      <point x="500" y="-128" type="curve" smooth="yes"/>
      <point x="764" y="-128"/>
      <point x="988" y="67"/>
    </contour>
  </outline>
</glyph>
<glyph name="five.tab" format="2">
  <advance width="630"/>
  <outline>
    <contour>
      <point x="303.0" y="-8" type="curve" smooth="yes"/>
      <point x="441.0" y="-8"/>
      <point x="531.0" y="81"/>
      <point x="531.0" y="213" type="curve" smooth="yes"/>
      <point x="531.0" y="343"/>
      <point x="433.0" y="430"/>
      <point x="284.0" y="430" type="curve" smooth="yes"/>
      <point x="238.0" y="430"/>
      <point x="199.0" y="426"/>
      <point x="158.0" y="421" type="curve"/>
      <point x="184.0" y="724" type="line"/>
      <point x="513.0" y="724" type="line"/>
      <point x="513.0" y="740" type="line"/>
      <point x="169.0" y="740" type="line"/>
      <point x="140.0" y="402" type="line"/>
      <point x="195.0" y="411"/>
      <point x="234.0" y="415"/>
      <point x="284.0" y="415" type="curve" smooth="yes"/>
      <point x="422.0" y="415"/>
      <point x="515.0" y="334"/>
      <point x="515.0" y="213" type="curve" smooth="yes"/>
      <point x="515.0" y="89"/>
      <point x="430.0" y="7"/>
      <point x="303.0" y="7" type="curve" smooth="yes"/>
      <point x="226.0" y="7"/>
      <point x="154.0" y="43"/>
      <point x="99.0" y="102" type="curve"/>
      <point x="99.0" y="77" type="line"/>
      <point x="150.0" y="27"/>
      <point x="221.0" y="-8"/>
    </contour>
  </outline>
</glyph>
<glyph name="four.tab" format="2">
  <advance width="630"/>
  <outline>
    <contour>
      <point x="425.0" y="0" type="line"/>
      <point x="442.0" y="0" type="line"/>
      <point x="442.0" y="223" type="line"/>
      <point x="556.0" y="223" type="line"/>
      <point x="556.0" y="238" type="line"/>
      <point x="442.0" y="238" type="line"/>
      <point x="442.0" y="758" type="line"/>
      <point x="428.0" y="758" type="line"/>
      <point x="70.0" y="236" type="line"/>
      <point x="70.0" y="223" type="line"/>
      <point x="425.0" y="223" type="line"/>
    </contour>
    <contour>
      <point x="90.0" y="238" type="line"/>
      <point x="425.0" y="726" type="line"/>
      <point x="425.0" y="238" type="line"/>
    </contour>
  </outline>
</glyph>
<glyph name="two.tab" format="2">
  <advance width="630"/>
  <outline>
    <contour>
      <point x="98.0" y="0" type="line"/>
      <point x="532.0" y="0" type="line"/>
      <point x="532.0" y="16" type="line"/>
      <point x="124.0" y="16" type="line"/>
      <point x="264.0" y="151" type="line" smooth="yes"/>
      <point x="462.0" y="342"/>
      <point x="519.0" y="425"/>
      <point x="519.0" y="531" type="curve" smooth="yes"/>
      <point x="519.0" y="664"/>
      <point x="434.0" y="748"/>
      <point x="310.0" y="748" type="curve" smooth="yes"/>
      <point x="241.0" y="748"/>
      <point x="164.0" y="721"/>
      <point x="110.0" y="682" type="curve"/>
      <point x="110.0" y="662" type="line"/>
      <point x="170.0" y="707"/>
      <point x="245.0" y="733"/>
      <point x="310.0" y="733" type="curve" smooth="yes"/>
      <point x="424.0" y="733"/>
      <point x="503.0" y="654"/>
      <point x="503.0" y="531" type="curve" smooth="yes"/>
      <point x="503.0" y="429"/>
      <point x="446.0" y="347"/>
      <point x="253.0" y="162" type="curve" smooth="yes"/>
      <point x="98.0" y="15" type="line"/>
    </contour>
  </outline>
</glyph>
